<?xml version="1.0" encoding="utf-8"?>
<!-- Generator: Adobe Illustrator 27.4.1, SVG Export Plug-In . SVG Version: 6.00 Build 0)  -->
<svg version="1.1" id="Lager_1" xmlns="http://www.w3.org/2000/svg" xmlns:xlink="http://www.w3.org/1999/xlink" x="0px" y="0px"
	 viewBox="0 0 1512 800" style="enable-background:new 0 0 1512 800;" xml:space="preserve">
<style type="text/css">
	.st0{fill:#FFFFFF;}
	.st1{fill:#686D73;}
	.st2{clip-path:url(#SVGID_00000068662455058592317740000004604683257671467946_);fill:#F5F7FA;}
	.st3{clip-path:url(#SVGID_00000068662455058592317740000004604683257671467946_);fill:#F7F5FA;}
	.st4{clip-path:url(#SVGID_00000098188264983036468190000000914534295471525279_);fill:#F5F7FA;}
	.st5{clip-path:url(#SVGID_00000098188264983036468190000000914534295471525279_);fill:#F7F5FA;}
	.st6{fill:#F5F7FA;}
	.st7{fill:none;stroke:#686D73;stroke-width:1.5;stroke-linecap:round;stroke-miterlimit:10;}
	.st8{fill:#EFF4FC;}
	.st9{fill:#505459;}
	.st10{fill:#E6EFFA;}
	.st11{fill:#E6EEFA;}
	.st12{fill:#E9F1FC;}
	.st13{fill:#E8F0FC;}
	.st14{fill:#686973;}
	.st15{fill:#505359;}
</style>
<g>
	<g>
		<path class="st0" d="M855,598.924c1.806-4.076,4-5,4.631-5.351c0.387-0.216,0.319-0.853-0.016-1.144
			C828,564.924,811,598.924,814.444,608.864c0.029,0.083,0.107,0.136,0.195,0.136h74.556C884,576.924,857.658,594.371,859,593.924"
			/>
		<path class="st1" d="M890.075,609.75h-75.437c-0.405,0-0.769-0.256-0.902-0.636c-0.988-2.854-0.41-7.448,1.509-11.996
			c2.165-5.132,5.65-9.507,9.815-12.32c13.188-8.906,27.619,0.602,35.047,7.065c0.097,0.084,0.183,0.183,0.256,0.291
			c3.117-1.703,9.295-4.177,15.27-3.02c7.607,1.478,12.42,8.121,14.302,19.745L890.075,609.75z M815.038,608.25h73.268
			c-1.679-9.375-5.401-15.137-11.073-17.133c-6.557-2.31-14.136,1.152-16.796,2.693c-0.109,0.173-0.259,0.315-0.44,0.417
			l-0.171,0.092c-0.104,0.056-0.235,0.125-0.388,0.214c-0.032,0.023-0.067,0.044-0.104,0.062c-0.881,0.54-2.362,1.729-3.648,4.632
			c-0.168,0.38-0.611,0.55-0.989,0.382c-0.379-0.168-0.55-0.61-0.382-0.989c1.421-3.207,3.104-4.598,4.149-5.252
			c0.121-0.104,0.309-0.244,0.555-0.409c-15.678-13.628-26.656-11.284-33.119-6.918c-3.926,2.652-7.219,6.793-9.272,11.66
			C814.931,601.722,814.338,605.708,815.038,608.25z"/>
	</g>
	<g>
		<path class="st0" d="M825,595.924c0,0,2.806-8.076,13-8"/>
		<path class="st1" d="M825,596.424c-0.055,0-0.11-0.01-0.165-0.028c-0.26-0.091-0.397-0.375-0.308-0.636
			c0.029-0.084,3.018-8.337,13.331-8.337c0.049,0,0.097,0.001,0.146,0.001c0.276,0.002,0.498,0.228,0.496,0.504
			c-0.002,0.274-0.226,0.496-0.5,0.496c-0.062,0.007-0.097-0.001-0.145-0.001c-9.583,0-12.273,7.352-12.384,7.666
			C825.399,596.295,825.206,596.424,825,596.424z"/>
	</g>
</g>
<g>
	<g>
		<defs>
			<path id="SVGID_1_" d="M1511.999,455.439c-0.792,0.385-1.68,0.6-2.62,0.6h-27.2c-3.314,0-6-2.686-6-6v-87.995
				c0-3.314-2.686-6-6-6h-50.534c-3.314,0-6,2.686-6,6v39.849c0,3.314-2.686,6-6,6h-38.4c-3.314,0-6,2.686-6,6v36.146
				c0,3.314-2.686,6-6,6h-42.133c-3.314,0-6,2.686-6,6v42.319c0,3.314-2.686,6-6,6h-48.667c-3.314,0-6-2.686-6-6V396.61
				c0-3.314-2.686-6-6-6h-23.466c-3.314,0-6-2.686-6-6v-22.566c0-3.314-2.686-6-6-6h-31.867c-3.314,0-6,2.686-6,6v50.96
				c0,3.314-2.686,6-6,6h-33.733c-3.314,0-6,2.686-6,6v48.491c0,3.314-2.686,6-6,6h-12.267c-3.314,0-6-2.686-6-6v-34.911
				c0-3.314-2.686-6-6-6h-25.333c-3.314,0-6,2.686-6,6v111.451c0,3.314-2.686,6-6,6h-43.067c-3.314,0-6,2.686-6,6v47.084H1512"/>
		</defs>
		<clipPath id="SVGID_00000019644753277190521210000005488822430450907315_">
			<use xlink:href="#SVGID_1_"  style="overflow:visible;"/>
		</clipPath>
		<polygon style="clip-path:url(#SVGID_00000019644753277190521210000005488822430450907315_);fill:#F5F7FA;" points="
			1006.713,486.452 1008.302,609.119 1006.713,609.119 		"/>
		<polygon style="clip-path:url(#SVGID_00000019644753277190521210000005488822430450907315_);fill:#F5F7FA;" points="
			1006.713,356.183 1017.419,356.044 1257.177,356.044 1260.456,609.119 1008.302,609.119 1006.713,486.452 		"/>
		<polygon style="clip-path:url(#SVGID_00000019644753277190521210000005488822430450907315_);fill:#F7F5FA;" points="
			1509.331,356.044 1512,562.022 1512,609.119 1260.456,609.119 1257.177,356.044 		"/>
		<polygon style="clip-path:url(#SVGID_00000019644753277190521210000005488822430450907315_);fill:#F7F5FA;" points="1512,562.022 
			1509.331,356.044 1512,356.044 		"/>
	</g>
</g>
<g>
	<g>
		<defs>
			<path id="SVGID_00000121984604401573853100000002563822016217960091_" d="M493.925,564.06v44.882h-494V436.525
				c0-3.314,2.686-6,6-6h12.32c3.314,0,6,2.686,6,6v32.274c0,3.314,2.686,6,6,6h22.96c3.314,0,6-2.686,6-6v-75.887
				c0-3.314,2.686-6,6-6h10.293c3.314,0,6,2.686,6,6v20.379c0,3.314,2.686,6,6,6h6.747c3.314,0,6-2.686,6-6v-61.349
				c0-3.314,2.686-6,6-6h38.16c3.314,0,6,2.686,6,6v95.05c0,3.314,2.686,6,6,6h7.253c3.314,0,6,2.686,6,6v44.169
				c0,3.314,2.686,6,6,6h52.854c3.314,0,6-2.686,6-6V389.608c0-3.314,2.686-6,6-6h26.506c3.314,0,6-2.686,6-6v-25.666
				c0-3.314,2.686-6,6-6h34.107c3.314,0,6,2.686,6,6v56.063c0,3.314,2.686,6,6,6h40.693c3.314,0,6,2.686,6,6v48.794
				c0,3.314,2.686,6,6,6h10.294c3.314,0,6-2.686,6-6v-35.578c0-3.314,2.686-6,6-6h27.013c3.314,0,6,2.686,6,6v141.967
				c0,3.314,2.686,6,6,6h9.28c3.314,0,6-2.686,6-6V564.06c0-3.314,2.686-6,6-6h27.52C491.239,558.06,493.925,560.746,493.925,564.06
				z"/>
		</defs>
		<clipPath id="SVGID_00000129928316512667637730000005245318753858439317_">
			<use xlink:href="#SVGID_00000121984604401573853100000002563822016217960091_"  style="overflow:visible;"/>
		</clipPath>
		
			<rect x="-0.075" y="345.942" style="clip-path:url(#SVGID_00000129928316512667637730000005245318753858439317_);fill:#F5F7FA;" width="0.507" height="263"/>
		
			<rect x="0.432" y="345.942" style="clip-path:url(#SVGID_00000129928316512667637730000005245318753858439317_);fill:#F5F7FA;" width="246.747" height="263"/>
		
			<rect x="247.179" y="345.942" style="clip-path:url(#SVGID_00000129928316512667637730000005245318753858439317_);fill:#F7F5FA;" width="246.747" height="263"/>
	</g>
</g>
<polyline class="st6" points="609,609 1512,609 1512,800 0,800 0,609 24.703,609 "/>
<line class="st7" x1="951" y1="609" x2="1512" y2="609"/>
<line class="st7" x1="609" y1="609" x2="945" y2="609"/>
<line class="st7" x1="516" y1="609" x2="603" y2="609"/>
<line class="st7" x1="30.703" y1="609" x2="510.302" y2="609"/>
<line class="st7" x1="0" y1="609" x2="24.703" y2="609"/>
<g>
	<g>
		<rect x="52.404" y="194.986" class="st8" width="54" height="420"/>
		<path class="st9" d="M107.154,615.736h-55.5v-421.5h55.5V615.736z M53.154,614.236h52.5v-418.5h-52.5V614.236z"/>
	</g>
	<g>
		<rect x="106.404" y="194.986" class="st0" width="132" height="420"/>
		<path class="st9" d="M239.154,615.736h-133.5v-421.5h133.5V615.736z M107.154,614.236h130.5v-418.5h-130.5V614.236z"/>
	</g>
	<g>
		<g>
			<path class="st10" d="M223.902,224.486h-13.996c-0.277,0-0.502-0.214-0.502-0.477v-18.545c0-0.264,0.225-0.477,0.502-0.477
				h13.996c0.277,0,0.502,0.214,0.502,0.477v18.545C224.404,224.273,224.179,224.486,223.902,224.486z"/>
			<path class="st9" d="M223.902,225.236h-13.996c-0.69,0-1.252-0.551-1.252-1.228v-18.545c0-0.677,0.562-1.228,1.252-1.228h13.996
				c0.69,0,1.252,0.551,1.252,1.228v18.545C225.154,224.686,224.592,225.236,223.902,225.236z M210.154,223.736h13.5v-18h-13.5
				V223.736z"/>
		</g>
		<g>
			<path class="st9" d="M227.404,225.736h-21c-0.414,0-0.75-0.336-0.75-0.75s0.336-0.75,0.75-0.75h21c0.414,0,0.75,0.336,0.75,0.75
				S227.818,225.736,227.404,225.736z"/>
		</g>
		<g>
			<rect x="209.404" y="214.236" class="st9" width="15" height="1.5"/>
		</g>
	</g>
	<g>
		<g>
			<path class="st10" d="M193.902,224.486h-13.996c-0.277,0-0.502-0.214-0.502-0.477v-18.545c0-0.264,0.225-0.477,0.502-0.477
				h13.996c0.277,0,0.502,0.214,0.502,0.477v18.545C194.404,224.273,194.179,224.486,193.902,224.486z"/>
			<path class="st9" d="M193.902,225.236h-13.996c-0.69,0-1.252-0.551-1.252-1.228v-18.545c0-0.677,0.562-1.228,1.252-1.228h13.996
				c0.69,0,1.252,0.551,1.252,1.228v18.545C195.154,224.686,194.592,225.236,193.902,225.236z M180.154,223.736h13.5v-18h-13.5
				V223.736z"/>
		</g>
		<g>
			<path class="st9" d="M197.404,225.736h-21c-0.414,0-0.75-0.336-0.75-0.75s0.336-0.75,0.75-0.75h21c0.414,0,0.75,0.336,0.75,0.75
				S197.818,225.736,197.404,225.736z"/>
		</g>
		<g>
			<rect x="179.404" y="214.236" class="st9" width="15" height="1.5"/>
		</g>
	</g>
	<g>
		<g>
			<path class="st10" d="M162.902,224.486h-13.996c-0.277,0-0.502-0.214-0.502-0.477v-18.545c0-0.264,0.225-0.477,0.502-0.477
				h13.996c0.277,0,0.502,0.214,0.502,0.477v18.545C163.404,224.273,163.179,224.486,162.902,224.486z"/>
			<path class="st9" d="M162.902,225.236h-13.996c-0.69,0-1.252-0.551-1.252-1.228v-18.545c0-0.677,0.562-1.228,1.252-1.228h13.996
				c0.69,0,1.252,0.551,1.252,1.228v18.545C164.154,224.686,163.592,225.236,162.902,225.236z M149.154,223.736h13.5v-18h-13.5
				V223.736z"/>
		</g>
		<g>
			<path class="st9" d="M166.404,225.736h-21c-0.414,0-0.75-0.336-0.75-0.75s0.336-0.75,0.75-0.75h21c0.414,0,0.75,0.336,0.75,0.75
				S166.818,225.736,166.404,225.736z"/>
		</g>
		<g>
			<rect x="148.404" y="214.236" class="st9" width="15" height="1.5"/>
		</g>
	</g>
	<g>
		<g>
			<path class="st10" d="M131.902,224.486h-13.996c-0.277,0-0.502-0.214-0.502-0.477v-18.545c0-0.264,0.225-0.477,0.502-0.477
				h13.996c0.277,0,0.502,0.214,0.502,0.477v18.545C132.404,224.273,132.179,224.486,131.902,224.486z"/>
			<path class="st9" d="M131.902,225.236h-13.996c-0.69,0-1.252-0.551-1.252-1.228v-18.545c0-0.677,0.562-1.228,1.252-1.228h13.996
				c0.69,0,1.252,0.551,1.252,1.228v18.545C133.154,224.686,132.592,225.236,131.902,225.236z M118.154,223.736h13.5v-18h-13.5
				V223.736z"/>
		</g>
		<g>
			<path class="st9" d="M135.404,225.736h-21c-0.414,0-0.75-0.336-0.75-0.75s0.336-0.75,0.75-0.75h21c0.414,0,0.75,0.336,0.75,0.75
				S135.818,225.736,135.404,225.736z"/>
		</g>
		<g>
			<rect x="117.404" y="214.236" class="st9" width="15" height="1.5"/>
		</g>
	</g>
	<g>
		<g>
			<path class="st10" d="M131.902,255.486h-13.996c-0.277,0-0.502-0.214-0.502-0.477v-18.545c0-0.264,0.225-0.477,0.502-0.477
				h13.996c0.277,0,0.502,0.214,0.502,0.477v18.545C132.404,255.273,132.179,255.486,131.902,255.486z"/>
			<path class="st9" d="M131.902,256.236h-13.996c-0.69,0-1.252-0.551-1.252-1.228v-18.545c0-0.677,0.562-1.228,1.252-1.228h13.996
				c0.69,0,1.252,0.551,1.252,1.228v18.545C133.154,255.686,132.592,256.236,131.902,256.236z M118.154,254.736h13.5v-18h-13.5
				V254.736z"/>
		</g>
		<g>
			<path class="st9" d="M135.404,256.736h-21c-0.414,0-0.75-0.336-0.75-0.75s0.336-0.75,0.75-0.75h21c0.414,0,0.75,0.336,0.75,0.75
				S135.818,256.736,135.404,256.736z"/>
		</g>
		<g>
			<rect x="117.404" y="245.236" class="st9" width="15" height="1.5"/>
		</g>
	</g>
	<g>
		<g>
			<path class="st10" d="M162.902,255.486h-13.996c-0.277,0-0.502-0.214-0.502-0.477v-18.545c0-0.264,0.225-0.477,0.502-0.477
				h13.996c0.277,0,0.502,0.214,0.502,0.477v18.545C163.404,255.273,163.179,255.486,162.902,255.486z"/>
			<path class="st9" d="M162.902,256.236h-13.996c-0.69,0-1.252-0.551-1.252-1.228v-18.545c0-0.677,0.562-1.228,1.252-1.228h13.996
				c0.69,0,1.252,0.551,1.252,1.228v18.545C164.154,255.686,163.592,256.236,162.902,256.236z M149.154,254.736h13.5v-18h-13.5
				V254.736z"/>
		</g>
		<g>
			<path class="st9" d="M166.404,256.736h-21c-0.414,0-0.75-0.336-0.75-0.75s0.336-0.75,0.75-0.75h21c0.414,0,0.75,0.336,0.75,0.75
				S166.818,256.736,166.404,256.736z"/>
		</g>
		<g>
			<rect x="148.404" y="245.236" class="st9" width="15" height="1.5"/>
		</g>
	</g>
	<g>
		<g>
			<path class="st10" d="M193.902,255.486h-13.996c-0.277,0-0.502-0.214-0.502-0.477v-18.545c0-0.264,0.225-0.477,0.502-0.477
				h13.996c0.277,0,0.502,0.214,0.502,0.477v18.545C194.404,255.273,194.179,255.486,193.902,255.486z"/>
			<path class="st9" d="M193.902,256.236h-13.996c-0.69,0-1.252-0.551-1.252-1.228v-18.545c0-0.677,0.562-1.228,1.252-1.228h13.996
				c0.69,0,1.252,0.551,1.252,1.228v18.545C195.154,255.686,194.592,256.236,193.902,256.236z M180.154,254.736h13.5v-18h-13.5
				V254.736z"/>
		</g>
		<g>
			<path class="st9" d="M197.404,256.736h-21c-0.414,0-0.75-0.336-0.75-0.75s0.336-0.75,0.75-0.75h21c0.414,0,0.75,0.336,0.75,0.75
				S197.818,256.736,197.404,256.736z"/>
		</g>
		<g>
			<rect x="179.404" y="245.236" class="st9" width="15" height="1.5"/>
		</g>
	</g>
	<g>
		<g>
			<path class="st10" d="M223.902,255.486h-13.996c-0.277,0-0.502-0.214-0.502-0.477v-18.545c0-0.264,0.225-0.477,0.502-0.477
				h13.996c0.277,0,0.502,0.214,0.502,0.477v18.545C224.404,255.273,224.179,255.486,223.902,255.486z"/>
			<path class="st9" d="M223.902,256.236h-13.996c-0.69,0-1.252-0.551-1.252-1.228v-18.545c0-0.677,0.562-1.228,1.252-1.228h13.996
				c0.69,0,1.252,0.551,1.252,1.228v18.545C225.154,255.686,224.592,256.236,223.902,256.236z M210.154,254.736h13.5v-18h-13.5
				V254.736z"/>
		</g>
		<g>
			<path class="st9" d="M227.404,256.736h-21c-0.414,0-0.75-0.336-0.75-0.75s0.336-0.75,0.75-0.75h21c0.414,0,0.75,0.336,0.75,0.75
				S227.818,256.736,227.404,256.736z"/>
		</g>
		<g>
			<rect x="209.404" y="245.236" class="st9" width="15" height="1.5"/>
		</g>
	</g>
	<g>
		<g>
			<path class="st10" d="M223.902,286.486h-13.996c-0.277,0-0.502-0.214-0.502-0.477v-18.545c0-0.264,0.225-0.478,0.502-0.478
				h13.996c0.277,0,0.502,0.214,0.502,0.478v18.545C224.404,286.273,224.179,286.486,223.902,286.486z"/>
			<path class="st9" d="M223.902,287.236h-13.996c-0.69,0-1.252-0.551-1.252-1.228v-18.545c0-0.677,0.562-1.228,1.252-1.228h13.996
				c0.69,0,1.252,0.551,1.252,1.228v18.545C225.154,286.686,224.592,287.236,223.902,287.236z M210.154,285.736h13.5v-18h-13.5
				V285.736z"/>
		</g>
		<g>
			<path class="st9" d="M227.404,287.736h-21c-0.414,0-0.75-0.336-0.75-0.75s0.336-0.75,0.75-0.75h21c0.414,0,0.75,0.336,0.75,0.75
				S227.818,287.736,227.404,287.736z"/>
		</g>
		<g>
			<rect x="209.404" y="276.236" class="st9" width="15" height="1.5"/>
		</g>
	</g>
	<g>
		<g>
			<path class="st10" d="M193.902,286.486h-13.996c-0.277,0-0.502-0.214-0.502-0.477v-18.545c0-0.264,0.225-0.478,0.502-0.478
				h13.996c0.277,0,0.502,0.214,0.502,0.478v18.545C194.404,286.273,194.179,286.486,193.902,286.486z"/>
			<path class="st9" d="M193.902,287.236h-13.996c-0.69,0-1.252-0.551-1.252-1.228v-18.545c0-0.677,0.562-1.228,1.252-1.228h13.996
				c0.69,0,1.252,0.551,1.252,1.228v18.545C195.154,286.686,194.592,287.236,193.902,287.236z M180.154,285.736h13.5v-18h-13.5
				V285.736z"/>
		</g>
		<g>
			<path class="st9" d="M197.404,287.736h-21c-0.414,0-0.75-0.336-0.75-0.75s0.336-0.75,0.75-0.75h21c0.414,0,0.75,0.336,0.75,0.75
				S197.818,287.736,197.404,287.736z"/>
		</g>
		<g>
			<rect x="179.404" y="276.236" class="st9" width="15" height="1.5"/>
		</g>
	</g>
	<g>
		<g>
			<path class="st10" d="M162.902,286.486h-13.996c-0.277,0-0.502-0.214-0.502-0.477v-18.545c0-0.264,0.225-0.478,0.502-0.478
				h13.996c0.277,0,0.502,0.214,0.502,0.478v18.545C163.404,286.273,163.179,286.486,162.902,286.486z"/>
			<path class="st9" d="M162.902,287.236h-13.996c-0.69,0-1.252-0.551-1.252-1.228v-18.545c0-0.677,0.562-1.228,1.252-1.228h13.996
				c0.69,0,1.252,0.551,1.252,1.228v18.545C164.154,286.686,163.592,287.236,162.902,287.236z M149.154,285.736h13.5v-18h-13.5
				V285.736z"/>
		</g>
		<g>
			<path class="st9" d="M166.404,287.736h-21c-0.414,0-0.75-0.336-0.75-0.75s0.336-0.75,0.75-0.75h21c0.414,0,0.75,0.336,0.75,0.75
				S166.818,287.736,166.404,287.736z"/>
		</g>
		<g>
			<rect x="148.404" y="276.236" class="st9" width="15" height="1.5"/>
		</g>
	</g>
	<g>
		<g>
			<path class="st10" d="M131.902,286.486h-13.996c-0.277,0-0.502-0.214-0.502-0.477v-18.545c0-0.264,0.225-0.478,0.502-0.478
				h13.996c0.277,0,0.502,0.214,0.502,0.478v18.545C132.404,286.273,132.179,286.486,131.902,286.486z"/>
			<path class="st9" d="M131.902,287.236h-13.996c-0.69,0-1.252-0.551-1.252-1.228v-18.545c0-0.677,0.562-1.228,1.252-1.228h13.996
				c0.69,0,1.252,0.551,1.252,1.228v18.545C133.154,286.686,132.592,287.236,131.902,287.236z M118.154,285.736h13.5v-18h-13.5
				V285.736z"/>
		</g>
		<g>
			<path class="st9" d="M135.404,287.736h-21c-0.414,0-0.75-0.336-0.75-0.75s0.336-0.75,0.75-0.75h21c0.414,0,0.75,0.336,0.75,0.75
				S135.818,287.736,135.404,287.736z"/>
		</g>
		<g>
			<rect x="117.404" y="276.236" class="st9" width="15" height="1.5"/>
		</g>
	</g>
	<g>
		<g>
			<path class="st10" d="M131.902,317.486h-13.996c-0.277,0-0.502-0.214-0.502-0.477v-18.545c0-0.264,0.225-0.478,0.502-0.478
				h13.996c0.277,0,0.502,0.214,0.502,0.478v18.545C132.404,317.273,132.179,317.486,131.902,317.486z"/>
			<path class="st9" d="M131.902,318.236h-13.996c-0.69,0-1.252-0.551-1.252-1.228v-18.545c0-0.677,0.562-1.228,1.252-1.228h13.996
				c0.69,0,1.252,0.551,1.252,1.228v18.545C133.154,317.686,132.592,318.236,131.902,318.236z M118.154,316.736h13.5v-18h-13.5
				V316.736z"/>
		</g>
		<g>
			<path class="st9" d="M135.404,318.736h-21c-0.414,0-0.75-0.336-0.75-0.75s0.336-0.75,0.75-0.75h21c0.414,0,0.75,0.336,0.75,0.75
				S135.818,318.736,135.404,318.736z"/>
		</g>
		<g>
			<rect x="117.404" y="307.236" class="st9" width="15" height="1.5"/>
		</g>
	</g>
	<g>
		<g>
			<path class="st10" d="M162.902,317.486h-13.996c-0.277,0-0.502-0.214-0.502-0.477v-18.545c0-0.264,0.225-0.478,0.502-0.478
				h13.996c0.277,0,0.502,0.214,0.502,0.478v18.545C163.404,317.273,163.179,317.486,162.902,317.486z"/>
			<path class="st9" d="M162.902,318.236h-13.996c-0.69,0-1.252-0.551-1.252-1.228v-18.545c0-0.677,0.562-1.228,1.252-1.228h13.996
				c0.69,0,1.252,0.551,1.252,1.228v18.545C164.154,317.686,163.592,318.236,162.902,318.236z M149.154,316.736h13.5v-18h-13.5
				V316.736z"/>
		</g>
		<g>
			<path class="st9" d="M166.404,318.736h-21c-0.414,0-0.75-0.336-0.75-0.75s0.336-0.75,0.75-0.75h21c0.414,0,0.75,0.336,0.75,0.75
				S166.818,318.736,166.404,318.736z"/>
		</g>
		<g>
			<rect x="148.404" y="307.236" class="st9" width="15" height="1.5"/>
		</g>
	</g>
	<g>
		<g>
			<path class="st10" d="M193.902,317.486h-13.996c-0.277,0-0.502-0.214-0.502-0.477v-18.545c0-0.264,0.225-0.478,0.502-0.478
				h13.996c0.277,0,0.502,0.214,0.502,0.478v18.545C194.404,317.273,194.179,317.486,193.902,317.486z"/>
			<path class="st9" d="M193.902,318.236h-13.996c-0.69,0-1.252-0.551-1.252-1.228v-18.545c0-0.677,0.562-1.228,1.252-1.228h13.996
				c0.69,0,1.252,0.551,1.252,1.228v18.545C195.154,317.686,194.592,318.236,193.902,318.236z M180.154,316.736h13.5v-18h-13.5
				V316.736z"/>
		</g>
		<g>
			<path class="st9" d="M197.404,318.736h-21c-0.414,0-0.75-0.336-0.75-0.75s0.336-0.75,0.75-0.75h21c0.414,0,0.75,0.336,0.75,0.75
				S197.818,318.736,197.404,318.736z"/>
		</g>
		<g>
			<rect x="179.404" y="307.236" class="st9" width="15" height="1.5"/>
		</g>
	</g>
	<g>
		<g>
			<path class="st10" d="M223.902,317.486h-13.996c-0.277,0-0.502-0.214-0.502-0.477v-18.545c0-0.264,0.225-0.478,0.502-0.478
				h13.996c0.277,0,0.502,0.214,0.502,0.478v18.545C224.404,317.273,224.179,317.486,223.902,317.486z"/>
			<path class="st9" d="M223.902,318.236h-13.996c-0.69,0-1.252-0.551-1.252-1.228v-18.545c0-0.677,0.562-1.228,1.252-1.228h13.996
				c0.69,0,1.252,0.551,1.252,1.228v18.545C225.154,317.686,224.592,318.236,223.902,318.236z M210.154,316.736h13.5v-18h-13.5
				V316.736z"/>
		</g>
		<g>
			<path class="st9" d="M227.404,318.736h-21c-0.414,0-0.75-0.336-0.75-0.75s0.336-0.75,0.75-0.75h21c0.414,0,0.75,0.336,0.75,0.75
				S227.818,318.736,227.404,318.736z"/>
		</g>
		<g>
			<rect x="209.404" y="307.236" class="st9" width="15" height="1.5"/>
		</g>
	</g>
	<g>
		<g>
			<path class="st10" d="M223.902,348.486h-13.996c-0.277,0-0.502-0.214-0.502-0.477v-18.545c0-0.264,0.225-0.478,0.502-0.478
				h13.996c0.277,0,0.502,0.214,0.502,0.478v18.545C224.404,348.273,224.179,348.486,223.902,348.486z"/>
			<path class="st9" d="M223.902,349.236h-13.996c-0.69,0-1.252-0.551-1.252-1.228v-18.545c0-0.677,0.562-1.228,1.252-1.228h13.996
				c0.69,0,1.252,0.551,1.252,1.228v18.545C225.154,348.686,224.592,349.236,223.902,349.236z M210.154,347.736h13.5v-18h-13.5
				V347.736z"/>
		</g>
		<g>
			<path class="st9" d="M227.404,349.736h-21c-0.414,0-0.75-0.336-0.75-0.75s0.336-0.75,0.75-0.75h21c0.414,0,0.75,0.336,0.75,0.75
				S227.818,349.736,227.404,349.736z"/>
		</g>
		<g>
			<rect x="209.404" y="338.236" class="st9" width="15" height="1.5"/>
		</g>
	</g>
	<g>
		<g>
			<path class="st10" d="M193.902,348.486h-13.996c-0.277,0-0.502-0.214-0.502-0.477v-18.545c0-0.264,0.225-0.478,0.502-0.478
				h13.996c0.277,0,0.502,0.214,0.502,0.478v18.545C194.404,348.273,194.179,348.486,193.902,348.486z"/>
			<path class="st9" d="M193.902,349.236h-13.996c-0.69,0-1.252-0.551-1.252-1.228v-18.545c0-0.677,0.562-1.228,1.252-1.228h13.996
				c0.69,0,1.252,0.551,1.252,1.228v18.545C195.154,348.686,194.592,349.236,193.902,349.236z M180.154,347.736h13.5v-18h-13.5
				V347.736z"/>
		</g>
		<g>
			<path class="st9" d="M197.404,349.736h-21c-0.414,0-0.75-0.336-0.75-0.75s0.336-0.75,0.75-0.75h21c0.414,0,0.75,0.336,0.75,0.75
				S197.818,349.736,197.404,349.736z"/>
		</g>
		<g>
			<rect x="179.404" y="338.236" class="st9" width="15" height="1.5"/>
		</g>
	</g>
	<g>
		<g>
			<path class="st10" d="M162.902,348.486h-13.996c-0.277,0-0.502-0.214-0.502-0.477v-18.545c0-0.264,0.225-0.478,0.502-0.478
				h13.996c0.277,0,0.502,0.214,0.502,0.478v18.545C163.404,348.273,163.179,348.486,162.902,348.486z"/>
			<path class="st9" d="M162.902,349.236h-13.996c-0.69,0-1.252-0.551-1.252-1.228v-18.545c0-0.677,0.562-1.228,1.252-1.228h13.996
				c0.69,0,1.252,0.551,1.252,1.228v18.545C164.154,348.686,163.592,349.236,162.902,349.236z M149.154,347.736h13.5v-18h-13.5
				V347.736z"/>
		</g>
		<g>
			<path class="st9" d="M166.404,349.736h-21c-0.414,0-0.75-0.336-0.75-0.75s0.336-0.75,0.75-0.75h21c0.414,0,0.75,0.336,0.75,0.75
				S166.818,349.736,166.404,349.736z"/>
		</g>
		<g>
			<rect x="148.404" y="338.236" class="st9" width="15" height="1.5"/>
		</g>
	</g>
	<g>
		<g>
			<path class="st10" d="M131.902,348.486h-13.996c-0.277,0-0.502-0.214-0.502-0.477v-18.545c0-0.264,0.225-0.478,0.502-0.478
				h13.996c0.277,0,0.502,0.214,0.502,0.478v18.545C132.404,348.273,132.179,348.486,131.902,348.486z"/>
			<path class="st9" d="M131.902,349.236h-13.996c-0.69,0-1.252-0.551-1.252-1.228v-18.545c0-0.677,0.562-1.228,1.252-1.228h13.996
				c0.69,0,1.252,0.551,1.252,1.228v18.545C133.154,348.686,132.592,349.236,131.902,349.236z M118.154,347.736h13.5v-18h-13.5
				V347.736z"/>
		</g>
		<g>
			<path class="st9" d="M135.404,349.736h-21c-0.414,0-0.75-0.336-0.75-0.75s0.336-0.75,0.75-0.75h21c0.414,0,0.75,0.336,0.75,0.75
				S135.818,349.736,135.404,349.736z"/>
		</g>
		<g>
			<rect x="117.404" y="338.236" class="st9" width="15" height="1.5"/>
		</g>
	</g>
	<g>
		<g>
			<path class="st10" d="M131.902,379.486h-13.996c-0.277,0-0.502-0.214-0.502-0.477v-18.545c0-0.264,0.225-0.478,0.502-0.478
				h13.996c0.277,0,0.502,0.214,0.502,0.478v18.545C132.404,379.273,132.179,379.486,131.902,379.486z"/>
			<path class="st9" d="M131.902,380.236h-13.996c-0.69,0-1.252-0.551-1.252-1.228v-18.545c0-0.677,0.562-1.228,1.252-1.228h13.996
				c0.69,0,1.252,0.551,1.252,1.228v18.545C133.154,379.686,132.592,380.236,131.902,380.236z M118.154,378.736h13.5v-18h-13.5
				V378.736z"/>
		</g>
		<g>
			<path class="st9" d="M135.404,380.736h-21c-0.414,0-0.75-0.336-0.75-0.75s0.336-0.75,0.75-0.75h21c0.414,0,0.75,0.336,0.75,0.75
				S135.818,380.736,135.404,380.736z"/>
		</g>
		<g>
			<rect x="117.404" y="369.236" class="st9" width="15" height="1.5"/>
		</g>
	</g>
	<g>
		<g>
			<path class="st10" d="M162.902,379.486h-13.996c-0.277,0-0.502-0.214-0.502-0.477v-18.545c0-0.264,0.225-0.478,0.502-0.478
				h13.996c0.277,0,0.502,0.214,0.502,0.478v18.545C163.404,379.273,163.179,379.486,162.902,379.486z"/>
			<path class="st9" d="M162.902,380.236h-13.996c-0.69,0-1.252-0.551-1.252-1.228v-18.545c0-0.677,0.562-1.228,1.252-1.228h13.996
				c0.69,0,1.252,0.551,1.252,1.228v18.545C164.154,379.686,163.592,380.236,162.902,380.236z M149.154,378.736h13.5v-18h-13.5
				V378.736z"/>
		</g>
		<g>
			<path class="st9" d="M166.404,380.736h-21c-0.414,0-0.75-0.336-0.75-0.75s0.336-0.75,0.75-0.75h21c0.414,0,0.75,0.336,0.75,0.75
				S166.818,380.736,166.404,380.736z"/>
		</g>
		<g>
			<rect x="148.404" y="369.236" class="st9" width="15" height="1.5"/>
		</g>
	</g>
	<g>
		<g>
			<path class="st10" d="M193.902,379.486h-13.996c-0.277,0-0.502-0.214-0.502-0.477v-18.545c0-0.264,0.225-0.478,0.502-0.478
				h13.996c0.277,0,0.502,0.214,0.502,0.478v18.545C194.404,379.273,194.179,379.486,193.902,379.486z"/>
			<path class="st9" d="M193.902,380.236h-13.996c-0.69,0-1.252-0.551-1.252-1.228v-18.545c0-0.677,0.562-1.228,1.252-1.228h13.996
				c0.69,0,1.252,0.551,1.252,1.228v18.545C195.154,379.686,194.592,380.236,193.902,380.236z M180.154,378.736h13.5v-18h-13.5
				V378.736z"/>
		</g>
		<g>
			<path class="st9" d="M197.404,380.736h-21c-0.414,0-0.75-0.336-0.75-0.75s0.336-0.75,0.75-0.75h21c0.414,0,0.75,0.336,0.75,0.75
				S197.818,380.736,197.404,380.736z"/>
		</g>
		<g>
			<rect x="179.404" y="369.236" class="st9" width="15" height="1.5"/>
		</g>
	</g>
	<g>
		<g>
			<path class="st10" d="M223.902,379.486h-13.996c-0.277,0-0.502-0.214-0.502-0.477v-18.545c0-0.264,0.225-0.478,0.502-0.478
				h13.996c0.277,0,0.502,0.214,0.502,0.478v18.545C224.404,379.273,224.179,379.486,223.902,379.486z"/>
			<path class="st9" d="M223.902,380.236h-13.996c-0.69,0-1.252-0.551-1.252-1.228v-18.545c0-0.677,0.562-1.228,1.252-1.228h13.996
				c0.69,0,1.252,0.551,1.252,1.228v18.545C225.154,379.686,224.592,380.236,223.902,380.236z M210.154,378.736h13.5v-18h-13.5
				V378.736z"/>
		</g>
		<g>
			<path class="st9" d="M227.404,380.736h-21c-0.414,0-0.75-0.336-0.75-0.75s0.336-0.75,0.75-0.75h21c0.414,0,0.75,0.336,0.75,0.75
				S227.818,380.736,227.404,380.736z"/>
		</g>
		<g>
			<rect x="209.404" y="369.236" class="st9" width="15" height="1.5"/>
		</g>
	</g>
	<g>
		<g>
			<path class="st10" d="M223.902,410.486h-13.996c-0.277,0-0.502-0.214-0.502-0.477v-18.545c0-0.264,0.225-0.478,0.502-0.478
				h13.996c0.277,0,0.502,0.214,0.502,0.478v18.545C224.404,410.273,224.179,410.486,223.902,410.486z"/>
			<path class="st9" d="M223.902,411.236h-13.996c-0.69,0-1.252-0.551-1.252-1.228v-18.545c0-0.677,0.562-1.228,1.252-1.228h13.996
				c0.69,0,1.252,0.551,1.252,1.228v18.545C225.154,410.686,224.592,411.236,223.902,411.236z M210.154,409.736h13.5v-18h-13.5
				V409.736z"/>
		</g>
		<g>
			<path class="st9" d="M227.404,411.736h-21c-0.414,0-0.75-0.336-0.75-0.75s0.336-0.75,0.75-0.75h21c0.414,0,0.75,0.336,0.75,0.75
				S227.818,411.736,227.404,411.736z"/>
		</g>
		<g>
			<rect x="209.404" y="400.236" class="st9" width="15" height="1.5"/>
		</g>
	</g>
	<g>
		<g>
			<path class="st10" d="M193.902,410.486h-13.996c-0.277,0-0.502-0.214-0.502-0.477v-18.545c0-0.264,0.225-0.478,0.502-0.478
				h13.996c0.277,0,0.502,0.214,0.502,0.478v18.545C194.404,410.273,194.179,410.486,193.902,410.486z"/>
			<path class="st9" d="M193.902,411.236h-13.996c-0.69,0-1.252-0.551-1.252-1.228v-18.545c0-0.677,0.562-1.228,1.252-1.228h13.996
				c0.69,0,1.252,0.551,1.252,1.228v18.545C195.154,410.686,194.592,411.236,193.902,411.236z M180.154,409.736h13.5v-18h-13.5
				V409.736z"/>
		</g>
		<g>
			<path class="st9" d="M197.404,411.736h-21c-0.414,0-0.75-0.336-0.75-0.75s0.336-0.75,0.75-0.75h21c0.414,0,0.75,0.336,0.75,0.75
				S197.818,411.736,197.404,411.736z"/>
		</g>
		<g>
			<rect x="179.404" y="400.236" class="st9" width="15" height="1.5"/>
		</g>
	</g>
	<g>
		<g>
			<path class="st10" d="M162.902,410.486h-13.996c-0.277,0-0.502-0.214-0.502-0.477v-18.545c0-0.264,0.225-0.478,0.502-0.478
				h13.996c0.277,0,0.502,0.214,0.502,0.478v18.545C163.404,410.273,163.179,410.486,162.902,410.486z"/>
			<path class="st9" d="M162.902,411.236h-13.996c-0.69,0-1.252-0.551-1.252-1.228v-18.545c0-0.677,0.562-1.228,1.252-1.228h13.996
				c0.69,0,1.252,0.551,1.252,1.228v18.545C164.154,410.686,163.592,411.236,162.902,411.236z M149.154,409.736h13.5v-18h-13.5
				V409.736z"/>
		</g>
		<g>
			<path class="st9" d="M166.404,411.736h-21c-0.414,0-0.75-0.336-0.75-0.75s0.336-0.75,0.75-0.75h21c0.414,0,0.75,0.336,0.75,0.75
				S166.818,411.736,166.404,411.736z"/>
		</g>
		<g>
			<rect x="148.404" y="400.236" class="st9" width="15" height="1.5"/>
		</g>
	</g>
	<g>
		<g>
			<path class="st10" d="M131.902,410.486h-13.996c-0.277,0-0.502-0.214-0.502-0.477v-18.545c0-0.264,0.225-0.478,0.502-0.478
				h13.996c0.277,0,0.502,0.214,0.502,0.478v18.545C132.404,410.273,132.179,410.486,131.902,410.486z"/>
			<path class="st9" d="M131.902,411.236h-13.996c-0.69,0-1.252-0.551-1.252-1.228v-18.545c0-0.677,0.562-1.228,1.252-1.228h13.996
				c0.69,0,1.252,0.551,1.252,1.228v18.545C133.154,410.686,132.592,411.236,131.902,411.236z M118.154,409.736h13.5v-18h-13.5
				V409.736z"/>
		</g>
		<g>
			<path class="st9" d="M135.404,411.736h-21c-0.414,0-0.75-0.336-0.75-0.75s0.336-0.75,0.75-0.75h21c0.414,0,0.75,0.336,0.75,0.75
				S135.818,411.736,135.404,411.736z"/>
		</g>
		<g>
			<rect x="117.404" y="400.236" class="st9" width="15" height="1.5"/>
		</g>
	</g>
	<g>
		<g>
			<path class="st10" d="M131.902,441.486h-13.996c-0.277,0-0.502-0.214-0.502-0.477v-18.545c0-0.264,0.225-0.478,0.502-0.478
				h13.996c0.277,0,0.502,0.214,0.502,0.478v18.545C132.404,441.273,132.179,441.486,131.902,441.486z"/>
			<path class="st9" d="M131.902,442.236h-13.996c-0.69,0-1.252-0.551-1.252-1.228v-18.545c0-0.677,0.562-1.228,1.252-1.228h13.996
				c0.69,0,1.252,0.551,1.252,1.228v18.545C133.154,441.686,132.592,442.236,131.902,442.236z M118.154,440.736h13.5v-18h-13.5
				V440.736z"/>
		</g>
		<g>
			<path class="st9" d="M135.404,442.736h-21c-0.414,0-0.75-0.336-0.75-0.75s0.336-0.75,0.75-0.75h21c0.414,0,0.75,0.336,0.75,0.75
				S135.818,442.736,135.404,442.736z"/>
		</g>
		<g>
			<rect x="117.404" y="431.236" class="st9" width="15" height="1.5"/>
		</g>
	</g>
	<g>
		<g>
			<path class="st10" d="M162.902,441.486h-13.996c-0.277,0-0.502-0.214-0.502-0.477v-18.545c0-0.264,0.225-0.478,0.502-0.478
				h13.996c0.277,0,0.502,0.214,0.502,0.478v18.545C163.404,441.273,163.179,441.486,162.902,441.486z"/>
			<path class="st9" d="M162.902,442.236h-13.996c-0.69,0-1.252-0.551-1.252-1.228v-18.545c0-0.677,0.562-1.228,1.252-1.228h13.996
				c0.69,0,1.252,0.551,1.252,1.228v18.545C164.154,441.686,163.592,442.236,162.902,442.236z M149.154,440.736h13.5v-18h-13.5
				V440.736z"/>
		</g>
		<g>
			<path class="st9" d="M166.404,442.736h-21c-0.414,0-0.75-0.336-0.75-0.75s0.336-0.75,0.75-0.75h21c0.414,0,0.75,0.336,0.75,0.75
				S166.818,442.736,166.404,442.736z"/>
		</g>
		<g>
			<rect x="148.404" y="431.236" class="st9" width="15" height="1.5"/>
		</g>
	</g>
	<g>
		<g>
			<path class="st10" d="M193.902,441.486h-13.996c-0.277,0-0.502-0.214-0.502-0.477v-18.545c0-0.264,0.225-0.478,0.502-0.478
				h13.996c0.277,0,0.502,0.214,0.502,0.478v18.545C194.404,441.273,194.179,441.486,193.902,441.486z"/>
			<path class="st9" d="M193.902,442.236h-13.996c-0.69,0-1.252-0.551-1.252-1.228v-18.545c0-0.677,0.562-1.228,1.252-1.228h13.996
				c0.69,0,1.252,0.551,1.252,1.228v18.545C195.154,441.686,194.592,442.236,193.902,442.236z M180.154,440.736h13.5v-18h-13.5
				V440.736z"/>
		</g>
		<g>
			<path class="st9" d="M197.404,442.736h-21c-0.414,0-0.75-0.336-0.75-0.75s0.336-0.75,0.75-0.75h21c0.414,0,0.75,0.336,0.75,0.75
				S197.818,442.736,197.404,442.736z"/>
		</g>
		<g>
			<rect x="179.404" y="431.236" class="st9" width="15" height="1.5"/>
		</g>
	</g>
	<g>
		<g>
			<path class="st10" d="M223.902,441.486h-13.996c-0.277,0-0.502-0.214-0.502-0.477v-18.545c0-0.264,0.225-0.478,0.502-0.478
				h13.996c0.277,0,0.502,0.214,0.502,0.478v18.545C224.404,441.273,224.179,441.486,223.902,441.486z"/>
			<path class="st9" d="M223.902,442.236h-13.996c-0.69,0-1.252-0.551-1.252-1.228v-18.545c0-0.677,0.562-1.228,1.252-1.228h13.996
				c0.69,0,1.252,0.551,1.252,1.228v18.545C225.154,441.686,224.592,442.236,223.902,442.236z M210.154,440.736h13.5v-18h-13.5
				V440.736z"/>
		</g>
		<g>
			<path class="st9" d="M227.404,442.736h-21c-0.414,0-0.75-0.336-0.75-0.75s0.336-0.75,0.75-0.75h21c0.414,0,0.75,0.336,0.75,0.75
				S227.818,442.736,227.404,442.736z"/>
		</g>
		<g>
			<rect x="209.404" y="431.236" class="st9" width="15" height="1.5"/>
		</g>
	</g>
	<g>
		<g>
			<path class="st10" d="M224.902,572.486h-13.996c-0.277,0-0.502-0.214-0.502-0.478v-18.545c0-0.264,0.225-0.477,0.502-0.477
				h13.996c0.277,0,0.502,0.214,0.502,0.477v18.545C225.404,572.273,225.179,572.486,224.902,572.486z"/>
			<path class="st9" d="M224.902,573.236h-13.996c-0.69,0-1.252-0.551-1.252-1.228v-18.545c0-0.677,0.562-1.228,1.252-1.228h13.996
				c0.69,0,1.252,0.551,1.252,1.228v18.545C226.154,572.686,225.592,573.236,224.902,573.236z M211.154,571.736h13.5v-18h-13.5
				V571.736z"/>
		</g>
		<g>
			<path class="st9" d="M228.404,573.736h-21c-0.414,0-0.75-0.336-0.75-0.75s0.336-0.75,0.75-0.75h21c0.414,0,0.75,0.336,0.75,0.75
				S228.818,573.736,228.404,573.736z"/>
		</g>
		<g>
			<rect x="210.404" y="562.236" class="st9" width="15" height="1.5"/>
		</g>
	</g>
	<g>
		<g>
			<path class="st10" d="M193.902,572.486h-13.996c-0.277,0-0.502-0.214-0.502-0.478v-18.545c0-0.264,0.225-0.477,0.502-0.477
				h13.996c0.277,0,0.502,0.214,0.502,0.477v18.545C194.404,572.273,194.179,572.486,193.902,572.486z"/>
			<path class="st9" d="M193.902,573.236h-13.996c-0.69,0-1.252-0.551-1.252-1.228v-18.545c0-0.677,0.562-1.228,1.252-1.228h13.996
				c0.69,0,1.252,0.551,1.252,1.228v18.545C195.154,572.686,194.592,573.236,193.902,573.236z M180.154,571.736h13.5v-18h-13.5
				V571.736z"/>
		</g>
		<g>
			<path class="st9" d="M197.404,573.736h-21c-0.414,0-0.75-0.336-0.75-0.75s0.336-0.75,0.75-0.75h21c0.414,0,0.75,0.336,0.75,0.75
				S197.818,573.736,197.404,573.736z"/>
		</g>
		<g>
			<rect x="179.404" y="562.236" class="st9" width="15" height="1.5"/>
		</g>
	</g>
	<g>
		<g>
			<path class="st10" d="M163.902,572.486h-13.996c-0.277,0-0.502-0.214-0.502-0.478v-18.545c0-0.264,0.225-0.477,0.502-0.477
				h13.996c0.277,0,0.502,0.214,0.502,0.477v18.545C164.404,572.273,164.179,572.486,163.902,572.486z"/>
			<path class="st9" d="M163.902,573.236h-13.996c-0.69,0-1.252-0.551-1.252-1.228v-18.545c0-0.677,0.562-1.228,1.252-1.228h13.996
				c0.69,0,1.252,0.551,1.252,1.228v18.545C165.154,572.686,164.592,573.236,163.902,573.236z M150.154,571.736h13.5v-18h-13.5
				V571.736z"/>
		</g>
		<g>
			<path class="st9" d="M167.404,573.736h-21c-0.414,0-0.75-0.336-0.75-0.75s0.336-0.75,0.75-0.75h21c0.414,0,0.75,0.336,0.75,0.75
				S167.818,573.736,167.404,573.736z"/>
		</g>
		<g>
			<rect x="149.404" y="562.236" class="st9" width="15" height="1.5"/>
		</g>
	</g>
	<g>
		<g>
			<path class="st10" d="M131.902,572.486h-13.996c-0.277,0-0.502-0.214-0.502-0.478v-18.545c0-0.264,0.225-0.477,0.502-0.477
				h13.996c0.277,0,0.502,0.214,0.502,0.477v18.545C132.404,572.273,132.179,572.486,131.902,572.486z"/>
			<path class="st9" d="M131.902,573.236h-13.996c-0.69,0-1.252-0.551-1.252-1.228v-18.545c0-0.677,0.562-1.228,1.252-1.228h13.996
				c0.69,0,1.252,0.551,1.252,1.228v18.545C133.154,572.686,132.592,573.236,131.902,573.236z M118.154,571.736h13.5v-18h-13.5
				V571.736z"/>
		</g>
		<g>
			<path class="st9" d="M135.404,573.736h-21c-0.414,0-0.75-0.336-0.75-0.75s0.336-0.75,0.75-0.75h21c0.414,0,0.75,0.336,0.75,0.75
				S135.818,573.736,135.404,573.736z"/>
		</g>
		<g>
			<rect x="117.404" y="562.236" class="st9" width="15" height="1.5"/>
		</g>
	</g>
	<g>
		<path class="st0" d="M239.342,194.219c1.547-1.42,4.052-4.533-0.317-6.957c-0.344-0.191-0.737-0.275-1.131-0.275l-130.203,0
			c-1.011,0-1.99,0.372-2.724,1.067c-1.335,1.263-2.68,3.54,0.532,6.245c0.533,0.449,1.221,0.688,1.919,0.688h129.919
			C238.078,194.986,238.796,194.719,239.342,194.219z"/>
		<path class="st9" d="M237.337,195.736H107.418c-0.887,0-1.741-0.307-2.402-0.864c-1.454-1.226-2.211-2.522-2.249-3.854
			c-0.035-1.22,0.547-2.434,1.685-3.51c0.868-0.82,2.018-1.271,3.24-1.271h130.203c0.542,0,1.06,0.127,1.495,0.369
			c1.704,0.945,2.649,2.112,2.81,3.466c0.225,1.896-1.154,3.603-2.35,4.7C239.171,195.394,238.279,195.736,237.337,195.736z
			 M107.691,187.736c-0.837,0-1.622,0.306-2.209,0.861c-0.571,0.54-1.245,1.391-1.217,2.377c0.025,0.887,0.603,1.812,1.717,2.75
			c0.392,0.33,0.901,0.512,1.436,0.512h129.919c0.565,0,1.097-0.203,1.498-0.57l0.507,0.553l-0.507-0.553
			c0.768-0.705,2.032-2.085,1.874-3.418c-0.101-0.849-0.79-1.633-2.048-2.331c-0.213-0.118-0.479-0.181-0.767-0.181H107.691z"/>
	</g>
	<g>
		<path class="st0" d="M107.404,186.986H53.698c-1.11,0-2.182,0.447-2.928,1.269c-1.09,1.202-1.366,3.731,0.701,5.875
			c0.544,0.565,1.317,0.856,2.102,0.856h52.831C106.404,194.986,99.404,189.986,107.404,186.986z"/>
		<path class="st9" d="M108.744,195.736H53.572c-1.013,0-1.976-0.396-2.642-1.086c-2.249-2.332-2.13-5.339-0.716-6.899
			c0.873-0.963,2.143-1.515,3.483-1.515h57.842l-3.873,1.452c-1.423,0.534-3.157,1.451-3.333,2.787
			c-0.208,1.583,1.738,3.353,2.505,3.9L108.744,195.736z M53.698,187.736c-0.918,0-1.783,0.373-2.372,1.023
			c-0.803,0.886-1.122,2.977,0.685,4.85c0.384,0.398,0.954,0.627,1.562,0.627h50.896c-0.896-0.988-1.824-2.417-1.621-3.957
			c0.125-0.956,0.655-1.806,1.581-2.543H53.698z"/>
	</g>
	<g>
		<path class="st0" d="M239.342,540.315c1.547-1.242,4.052-3.966-0.317-6.088c-0.344-0.167-0.737-0.241-1.131-0.241l-130.203,0
			c-1.011,0-1.99,0.326-2.724,0.933c-1.335,1.105-2.68,3.097,0.532,5.465c0.533,0.393,1.221,0.602,1.919,0.602h129.919
			C238.078,540.986,238.796,540.753,239.342,540.315z"/>
		<path class="st9" d="M237.337,541.736H107.418c-0.87,0-1.71-0.266-2.364-0.749c-1.484-1.094-2.254-2.266-2.288-3.482
			c-0.031-1.111,0.565-2.205,1.723-3.163c0.86-0.713,1.998-1.105,3.202-1.105h130.203c0.528,0,1.033,0.109,1.458,0.315
			c1.752,0.851,2.711,1.918,2.853,3.173c0.192,1.708-1.195,3.213-2.394,4.175l0,0C239.14,541.438,238.261,541.736,237.337,541.736z
			 M107.691,534.736c-0.855,0-1.653,0.271-2.246,0.761c-0.551,0.456-1.203,1.167-1.18,1.966c0.02,0.731,0.585,1.511,1.678,2.317
			c0.399,0.294,0.922,0.456,1.474,0.456h129.919c0.583,0,1.129-0.18,1.535-0.507l0,0c1.26-1.011,1.931-2.045,1.842-2.837
			c-0.1-0.885-1.152-1.571-2.017-1.991c-0.222-0.108-0.5-0.165-0.803-0.165H107.691z"/>
	</g>
	<g>
		<path class="st0" d="M107.404,533.986H53.698c-1.11,0-2.182,0.391-2.928,1.11c-1.09,1.052-1.366,3.265,0.701,5.14
			c0.544,0.494,1.317,0.749,2.102,0.749h52.831C106.404,540.986,99.404,536.611,107.404,533.986z"/>
		<path class="st9" d="M106.404,541.736H53.572c-0.995,0-1.945-0.344-2.605-0.943c-1.451-1.316-1.771-2.663-1.785-3.562
			c-0.016-1.029,0.374-2.005,1.067-2.675c0.87-0.839,2.126-1.32,3.449-1.32h58.397l-4.458,1.463c-2.055,0.674-3.2,1.504-3.31,2.398
			c-0.158,1.287,1.782,2.818,2.474,3.253l2.204,1.386H106.404z M53.698,534.736c-0.937,0-1.814,0.328-2.407,0.9
			c-0.397,0.383-0.619,0.956-0.609,1.572c0.009,0.601,0.241,1.518,1.293,2.473c0.388,0.353,0.971,0.555,1.598,0.555h50.726
			c-0.832-0.853-1.616-2.024-1.459-3.317c0.099-0.817,0.558-1.546,1.368-2.183H53.698z"/>
	</g>
	<g>
		<path class="st11" d="M226.404,522.486v-62.899c0-0.541-0.113-1.071-0.328-1.567c-0.805-1.855-3.225-6.034-8.672-6.034
			c-7,0-9,5.917-9,6.903v63.597c0,0.276,0.224,0.5,0.5,0.5h17C226.18,522.986,226.404,522.762,226.404,522.486z"/>
		<path class="st9" d="M225.904,523.736h-17c-0.689,0-1.25-0.561-1.25-1.25v-63.598c0-1.62,2.438-7.652,9.75-7.652
			c5.905,0,8.513,4.535,9.36,6.485c0.259,0.597,0.39,1.225,0.39,1.866v62.898C227.154,523.176,226.593,523.736,225.904,523.736z
			 M209.154,522.236h16.5v-62.648c0-0.436-0.089-0.862-0.266-1.269c-0.729-1.679-2.967-5.583-7.984-5.583
			c-6.488,0-8.247,5.422-8.25,6.152V522.236z"/>
	</g>
	<g>
		<path class="st11" d="M195.404,522.486v-62.899c0-0.541-0.113-1.071-0.328-1.567c-0.805-1.855-3.225-6.034-8.672-6.034
			c-7,0-9,5.917-9,6.903v63.597c0,0.276,0.224,0.5,0.5,0.5h17C195.18,522.986,195.404,522.762,195.404,522.486z"/>
		<path class="st9" d="M194.904,523.736h-17c-0.689,0-1.25-0.561-1.25-1.25v-63.598c0-1.62,2.438-7.652,9.75-7.652
			c5.905,0,8.513,4.535,9.36,6.485c0.259,0.597,0.39,1.225,0.39,1.866v62.898C196.154,523.176,195.593,523.736,194.904,523.736z
			 M178.154,522.236h16.5v-62.648c0-0.436-0.089-0.862-0.266-1.269c-0.729-1.679-2.967-5.583-7.984-5.583
			c-6.488,0-8.247,5.422-8.25,6.152V522.236z"/>
	</g>
	<g>
		<path class="st11" d="M164.404,522.486v-62.899c0-0.541-0.113-1.071-0.328-1.567c-0.805-1.855-3.225-6.034-8.672-6.034
			c-7,0-9,5.917-9,6.903v63.597c0,0.276,0.224,0.5,0.5,0.5h17C164.18,522.986,164.404,522.762,164.404,522.486z"/>
		<path class="st9" d="M163.904,523.736h-17c-0.689,0-1.25-0.561-1.25-1.25v-63.598c0-1.62,2.438-7.652,9.75-7.652
			c5.905,0,8.513,4.535,9.36,6.485c0.259,0.597,0.39,1.225,0.39,1.866v62.898C165.154,523.176,164.593,523.736,163.904,523.736z
			 M147.154,522.236h16.5v-62.648c0-0.436-0.089-0.862-0.266-1.269c-0.729-1.679-2.967-5.583-7.984-5.583
			c-6.488,0-8.247,5.422-8.25,6.152V522.236z"/>
	</g>
	<g>
		<path class="st11" d="M134.404,522.486v-62.899c0-0.541-0.113-1.071-0.328-1.567c-0.805-1.855-3.225-6.034-8.672-6.034
			c-7,0-9,5.917-9,6.903v63.597c0,0.276,0.224,0.5,0.5,0.5h17C134.18,522.986,134.404,522.762,134.404,522.486z"/>
		<path class="st9" d="M133.904,523.736h-17c-0.689,0-1.25-0.561-1.25-1.25v-63.598c0-1.62,2.438-7.652,9.75-7.652
			c5.905,0,8.513,4.535,9.36,6.485c0.259,0.597,0.39,1.225,0.39,1.866v62.898C135.154,523.176,134.593,523.736,133.904,523.736z
			 M117.154,522.236h16.5v-62.648c0-0.436-0.089-0.862-0.266-1.269c-0.729-1.679-2.967-5.583-7.984-5.583
			c-6.488,0-8.247,5.422-8.25,6.152V522.236z"/>
	</g>
	<g>
		<path class="st11" d="M186.404,614.986v-28.5c0-0.276-0.224-0.5-0.5-0.5h-29c-0.276,0-0.5,0.224-0.5,0.5v28.5H186.404z"/>
		<path class="st9" d="M187.154,615.736h-31.5v-29.25c0-0.689,0.561-1.25,1.25-1.25h29c0.689,0,1.25,0.561,1.25,1.25V615.736z
			 M157.154,614.236h28.5v-27.5h-28.5V614.236z"/>
	</g>
	<g>
		<path class="st11" d="M228.404,614.986v-28.5c0-0.276-0.224-0.5-0.5-0.5h-29c-0.276,0-0.5,0.224-0.5,0.5v28.5H228.404z"/>
		<path class="st9" d="M229.154,615.736h-31.5v-29.25c0-0.689,0.561-1.25,1.25-1.25h29c0.689,0,1.25,0.561,1.25,1.25V615.736z
			 M199.154,614.236h28.5v-27.5h-28.5V614.236z"/>
	</g>
	<g>
		<path class="st11" d="M145.404,614.986v-28.5c0-0.276-0.224-0.5-0.5-0.5h-29c-0.276,0-0.5,0.224-0.5,0.5v28.5H145.404z"/>
		<path class="st9" d="M146.154,615.736h-31.5v-29.25c0-0.689,0.561-1.25,1.25-1.25h29c0.689,0,1.25,0.561,1.25,1.25V615.736z
			 M116.154,614.236h28.5v-27.5h-28.5V614.236z"/>
	</g>
</g>
<g>
	<g>
		<rect x="1423" y="407.986" class="st11" width="37" height="207"/>
		<path class="st9" d="M1460.75,615.736h-38.5v-208.5h38.5V615.736z M1423.75,614.236h35.5v-205.5h-35.5V614.236z"/>
	</g>
	<g>
		<rect x="1293" y="407.986" class="st0" width="130" height="207"/>
		<path class="st9" d="M1423.75,615.736h-131.5v-208.5h131.5V615.736z M1293.75,614.236h128.5v-205.5h-128.5V614.236z"/>
	</g>
	<g>
		<path class="st0" d="M1292.292,407.679c-1.99-0.979-6.328-4.746-0.07-7.373c0.491-0.206,1.022-0.32,1.554-0.32h131.87
			c1.241,0,2.455,0.63,3.01,1.75c0.521,1.051,0.604,2.632-0.856,4.892c-0.547,0.847-1.491,1.358-2.494,1.358h-131.702
			C1293.148,407.986,1292.702,407.881,1292.292,407.679z"/>
		<path class="st9" d="M1425.307,408.736h-131.702c-0.572,0-1.126-0.13-1.645-0.385c-1.539-0.757-3.806-2.661-3.742-4.805
			c0.048-1.595,1.297-2.918,3.714-3.932c0.589-0.248,1.227-0.379,1.844-0.379h131.87c1.584,0,3.029,0.851,3.683,2.167
			c0.543,1.095,0.827,2.961-0.898,5.632C1427.742,408.101,1426.575,408.736,1425.307,408.736z M1293.775,400.736
			c-0.419,0-0.855,0.09-1.263,0.262c-1.256,0.527-2.76,1.404-2.795,2.593c-0.04,1.336,1.71,2.827,2.905,3.415h0.001
			c0.31,0.153,0.64,0.23,0.98,0.23h131.702c0.745,0,1.459-0.389,1.863-1.015c1.078-1.67,1.353-3.066,0.814-4.152
			c-0.402-0.81-1.32-1.333-2.339-1.333H1293.775z"/>
	</g>
	<g>
		<path class="st0" d="M1426.025,399.986h35.79c0.789,0,1.58,0.194,2.224,0.639c1.966,1.361,4.016,6.361-4.184,7.361H1425
			C1425,407.986,1433,404,1426.025,399.986z"/>
		<path class="st9" d="M1425,408.736h-3.173l2.838-1.421c0.947-0.475,3.416-2.071,3.464-3.742c0.029-0.986-0.805-1.975-2.478-2.937
			l-2.433-1.4h38.597c1.004,0,1.92,0.267,2.65,0.772c1.312,0.908,2.451,2.903,1.979,4.814c-0.362,1.465-1.783,3.332-6.5,3.907
			L1425,408.736z M1427.467,407.236h32.388c2.927-0.362,4.783-1.35,5.135-2.773c0.326-1.321-0.629-2.703-1.377-3.221
			c-0.479-0.331-1.1-0.506-1.797-0.506h-33.511c0.91,0.896,1.354,1.86,1.324,2.884
			C1429.584,405.096,1428.523,406.349,1427.467,407.236z"/>
	</g>
	<g>
		<path class="st0" d="M1292.245,501.679c-1.962-0.979-6.238-4.746-0.069-7.373c0.484-0.206,1.007-0.32,1.531-0.32h129.987
			c1.223,0,2.42,0.63,2.967,1.75c0.514,1.051,0.595,2.632-0.843,4.892c-0.54,0.847-1.47,1.358-2.458,1.358h-129.821
			C1293.088,501.986,1292.649,501.881,1292.245,501.679z"/>
		<path class="st9" d="M1423.359,502.736h-129.821c-0.567,0-1.115-0.13-1.629-0.387l0,0c-1.519-0.758-3.756-2.662-3.69-4.805
			c0.048-1.592,1.28-2.914,3.663-3.929c0.584-0.248,1.215-0.38,1.825-0.38h129.986c1.567,0,2.997,0.852,3.642,2.171
			c0.533,1.094,0.812,2.956-0.885,5.623C1425.77,502.099,1424.614,502.736,1423.359,502.736z M1293.707,494.736
			c-0.41,0-0.838,0.09-1.237,0.26c-1.235,0.526-2.716,1.403-2.752,2.594c-0.04,1.338,1.684,2.83,2.861,3.418l0,0
			c0.304,0.151,0.626,0.229,0.959,0.229h129.821c0.739,0,1.422-0.378,1.825-1.012c1.064-1.671,1.334-3.07,0.803-4.159
			c-0.395-0.808-1.295-1.329-2.294-1.329H1293.707z"/>
	</g>
	<g>
		<path class="st0" d="M1424.091,493.986h38.079c0.839,0,1.681,0.194,2.366,0.639c2.092,1.361,2.936,7.361-4.452,7.361H1423
			C1423,501.986,1430.888,499,1424.091,493.986z"/>
		<path class="st9" d="M1460.083,502.736h-41.151l3.802-1.451c0.859-0.328,3.138-1.524,3.353-3.098
			c0.184-1.351-1.226-2.701-2.44-3.598l-1.835-1.354h40.359c1.051,0,2.01,0.263,2.774,0.76c1.263,0.822,2.239,3.014,1.614,5.122
			C1466.157,500.47,1464.783,502.736,1460.083,502.736z M1425.761,501.236h34.322c2.762,0,4.551-0.903,5.037-2.545
			c0.409-1.379-0.195-2.918-0.994-3.438c-0.521-0.339-1.196-0.518-1.956-0.518h-36.077c1.149,1.216,1.646,2.441,1.479,3.658
			C1427.407,499.588,1426.619,500.537,1425.761,501.236z"/>
	</g>
	<g>
		<path class="st0" d="M1294.875,399.986h-6.173c-1.354,0-2.679-0.656-3.344-1.845c-0.452-0.809-0.592-1.815,0.279-2.878
			c0.698-0.852,1.788-1.277,2.884-1.277h141.293c0,0,4.918,3,0,6H1294.875z"/>
		<path class="st9" d="M1430.025,400.736h-141.323c-1.697,0-3.229-0.854-3.998-2.229c-0.706-1.26-0.58-2.581,0.354-3.72
			c0.808-0.986,2.07-1.551,3.464-1.551h141.504l0.18,0.11c0.104,0.063,2.545,1.578,2.545,3.751c0,1.312-0.856,2.499-2.545,3.529
			L1430.025,400.736z M1288.521,394.736c-0.942,0-1.781,0.365-2.304,1.002c-0.545,0.665-0.61,1.312-0.205,2.036
			c0.505,0.902,1.535,1.461,2.689,1.461H1429.6c1.096-0.704,1.65-1.423,1.65-2.139c0-1.083-1.217-2.045-1.664-2.361H1288.521z"/>
	</g>
	<g>
		<path class="st0" d="M1430,393.986h35.359c1.329,0,2.63,0.655,3.286,1.841c0.448,0.809,0.587,1.818-0.273,2.882
			c-0.689,0.852-1.761,1.277-2.84,1.277H1430C1430,399.986,1433.878,396.986,1430,393.986z"/>
		<path class="st9" d="M1465.531,400.736h-37.727l1.736-1.343c0.013-0.01,1.438-1.142,1.433-2.524
			c-0.002-0.786-0.484-1.556-1.433-2.289l-1.736-1.343h37.555c1.671,0,3.181,0.854,3.941,2.228c0.697,1.259,0.574,2.579-0.346,3.717
			C1468.156,400.169,1466.908,400.736,1465.531,400.736z M1431.685,399.236h33.847c0.922,0,1.745-0.364,2.258-0.998
			c0.54-0.668,0.604-1.319,0.199-2.048c-0.496-0.897-1.504-1.454-2.629-1.454h-33.587c0.467,0.672,0.701,1.387,0.701,2.139
			C1432.474,397.8,1432.106,398.611,1431.685,399.236z"/>
	</g>
	<g>
		<g>
			<path class="st11" d="M1347,440.986v-22.5c0-0.276,0.224-0.5,0.5-0.5h20c0.276,0,0.5,0.224,0.5,0.5v22.5H1347z"/>
			<path class="st9" d="M1368.75,441.736h-22.5v-23.25c0-0.689,0.561-1.25,1.25-1.25h20c0.689,0,1.25,0.561,1.25,1.25V441.736z
				 M1347.75,440.236h19.5v-21.5h-19.5V440.236z"/>
		</g>
		<g>
			<path class="st9" d="M1367.576,446.736h-19.94c-0.763,0-1.512-0.172-2.166-0.496c-1.892-0.94-2.25-2.071-2.218-2.854
				c0.054-1.312,1.213-2.352,2.338-2.799c0.585-0.233,1.201-0.352,1.834-0.352h19.94c0.763,0,1.512,0.172,2.166,0.496
				c1.892,0.94,2.25,2.071,2.218,2.854c-0.054,1.312-1.213,2.352-2.338,2.799C1368.825,446.618,1368.209,446.736,1367.576,446.736z
				 M1347.424,441.736c-0.441,0-0.872,0.082-1.279,0.244l0,0c-0.666,0.266-1.37,0.888-1.395,1.469
				c-0.026,0.646,0.858,1.185,1.388,1.447c0.447,0.223,0.965,0.34,1.498,0.34h19.94c0.441,0,0.872-0.082,1.279-0.244
				c0.666-0.266,1.37-0.888,1.395-1.469c0.026-0.646-0.858-1.185-1.388-1.447c-0.447-0.223-0.965-0.34-1.498-0.34H1347.424z"/>
		</g>
		<g>
			<rect x="1347" y="434.236" class="st9" width="21" height="1.5"/>
		</g>
	</g>
	<g>
		<g>
			<path class="st11" d="M1386,480.986v-22.5c0-0.276,0.224-0.5,0.5-0.5h20c0.276,0,0.5,0.224,0.5,0.5v22.5H1386z"/>
			<path class="st9" d="M1407.75,481.736h-22.5v-23.25c0-0.689,0.561-1.25,1.25-1.25h20c0.689,0,1.25,0.561,1.25,1.25V481.736z
				 M1386.75,480.236h19.5v-21.5h-19.5V480.236z"/>
		</g>
		<g>
			<path class="st9" d="M1406.576,486.736h-19.94c-0.763,0-1.512-0.172-2.166-0.496c-1.892-0.94-2.25-2.071-2.218-2.854
				c0.054-1.312,1.213-2.352,2.338-2.799c0.585-0.233,1.201-0.352,1.834-0.352h19.94c0.763,0,1.512,0.172,2.166,0.496
				c1.892,0.94,2.25,2.071,2.218,2.854c-0.054,1.312-1.213,2.352-2.338,2.799C1407.825,486.618,1407.209,486.736,1406.576,486.736z
				 M1386.424,481.736c-0.441,0-0.872,0.082-1.279,0.244l0,0c-0.666,0.266-1.37,0.888-1.395,1.469
				c-0.026,0.646,0.858,1.185,1.388,1.447c0.447,0.223,0.965,0.34,1.498,0.34h19.94c0.441,0,0.872-0.082,1.279-0.244
				c0.666-0.266,1.37-0.888,1.395-1.469c0.026-0.646-0.858-1.185-1.388-1.447c-0.447-0.223-0.965-0.34-1.498-0.34H1386.424z"/>
		</g>
		<g>
			<rect x="1386" y="474.236" class="st9" width="21" height="1.5"/>
		</g>
	</g>
	<g>
		<g>
			<path class="st11" d="M1307,480.986v-22.5c0-0.276,0.224-0.5,0.5-0.5h20c0.276,0,0.5,0.224,0.5,0.5v22.5H1307z"/>
			<path class="st9" d="M1328.75,481.736h-22.5v-23.25c0-0.689,0.561-1.25,1.25-1.25h20c0.689,0,1.25,0.561,1.25,1.25V481.736z
				 M1307.75,480.236h19.5v-21.5h-19.5V480.236z"/>
		</g>
		<g>
			<path class="st9" d="M1327.576,486.736h-19.94c-0.763,0-1.512-0.172-2.166-0.496c-1.892-0.94-2.25-2.071-2.218-2.854
				c0.054-1.312,1.213-2.352,2.338-2.799c0.585-0.233,1.201-0.352,1.834-0.352h19.94c0.763,0,1.512,0.172,2.166,0.496
				c1.892,0.94,2.25,2.071,2.218,2.854c-0.054,1.312-1.213,2.352-2.338,2.799C1328.825,486.618,1328.209,486.736,1327.576,486.736z
				 M1307.424,481.736c-0.441,0-0.872,0.082-1.279,0.244l0,0c-0.666,0.266-1.37,0.888-1.395,1.469
				c-0.026,0.646,0.858,1.185,1.388,1.447c0.447,0.223,0.965,0.34,1.498,0.34h19.94c0.441,0,0.872-0.082,1.279-0.244
				c0.666-0.266,1.37-0.888,1.395-1.469c0.026-0.646-0.858-1.185-1.388-1.447c-0.447-0.223-0.965-0.34-1.498-0.34H1307.424z"/>
		</g>
		<g>
			<rect x="1307" y="474.236" class="st9" width="21" height="1.5"/>
		</g>
	</g>
	<g>
		<g>
			<path class="st11" d="M1307,440.986v-22.5c0-0.276,0.224-0.5,0.5-0.5h20c0.276,0,0.5,0.224,0.5,0.5v22.5H1307z"/>
			<path class="st9" d="M1328.75,441.736h-22.5v-23.25c0-0.689,0.561-1.25,1.25-1.25h20c0.689,0,1.25,0.561,1.25,1.25V441.736z
				 M1307.75,440.236h19.5v-21.5h-19.5V440.236z"/>
		</g>
		<g>
			<path class="st9" d="M1327.576,446.736h-19.94c-0.763,0-1.512-0.172-2.166-0.496c-1.892-0.94-2.25-2.071-2.218-2.854
				c0.054-1.312,1.213-2.352,2.338-2.799c0.585-0.233,1.201-0.352,1.834-0.352h19.94c0.763,0,1.512,0.172,2.166,0.496
				c1.892,0.94,2.25,2.071,2.218,2.854c-0.054,1.312-1.213,2.352-2.338,2.799C1328.825,446.618,1328.209,446.736,1327.576,446.736z
				 M1307.424,441.736c-0.441,0-0.872,0.082-1.279,0.244l0,0c-0.666,0.266-1.37,0.888-1.395,1.469
				c-0.026,0.646,0.858,1.185,1.388,1.447c0.447,0.223,0.965,0.34,1.498,0.34h19.94c0.441,0,0.872-0.082,1.279-0.244
				c0.666-0.266,1.37-0.888,1.395-1.469c0.026-0.646-0.858-1.185-1.388-1.447c-0.447-0.223-0.965-0.34-1.498-0.34H1307.424z"/>
		</g>
		<g>
			<rect x="1307" y="434.236" class="st9" width="21" height="1.5"/>
		</g>
	</g>
	<g>
		<g>
			<path class="st11" d="M1307,533.986v-22.5c0-0.276,0.224-0.5,0.5-0.5h20c0.276,0,0.5,0.224,0.5,0.5v22.5H1307z"/>
			<path class="st9" d="M1328.75,534.736h-22.5v-23.25c0-0.689,0.561-1.25,1.25-1.25h20c0.689,0,1.25,0.561,1.25,1.25V534.736z
				 M1307.75,533.236h19.5v-21.5h-19.5V533.236z"/>
		</g>
		<g>
			<path class="st9" d="M1327.576,539.736h-19.94c-0.763,0-1.512-0.172-2.166-0.496c-1.892-0.94-2.25-2.071-2.218-2.854
				c0.054-1.312,1.213-2.352,2.338-2.799c0.585-0.233,1.201-0.352,1.834-0.352h19.94c0.763,0,1.512,0.172,2.166,0.496
				c1.892,0.94,2.25,2.071,2.218,2.854c-0.054,1.312-1.213,2.352-2.338,2.799C1328.825,539.618,1328.209,539.736,1327.576,539.736z
				 M1307.424,534.736c-0.441,0-0.872,0.082-1.279,0.244l0,0c-0.666,0.266-1.37,0.888-1.395,1.469
				c-0.026,0.646,0.858,1.185,1.388,1.447c0.447,0.223,0.965,0.34,1.498,0.34h19.94c0.441,0,0.872-0.082,1.279-0.244
				c0.666-0.266,1.37-0.888,1.395-1.469c0.026-0.646-0.858-1.185-1.388-1.447c-0.447-0.223-0.965-0.34-1.498-0.34H1307.424z"/>
		</g>
		<g>
			<rect x="1307" y="527.236" class="st9" width="21" height="1.5"/>
		</g>
	</g>
	<g>
		<g>
			<path class="st11" d="M1347,533.986v-22.5c0-0.276,0.224-0.5,0.5-0.5h20c0.276,0,0.5,0.224,0.5,0.5v22.5H1347z"/>
			<path class="st9" d="M1368.75,534.736h-22.5v-23.25c0-0.689,0.561-1.25,1.25-1.25h20c0.689,0,1.25,0.561,1.25,1.25V534.736z
				 M1347.75,533.236h19.5v-21.5h-19.5V533.236z"/>
		</g>
		<g>
			<path class="st9" d="M1367.576,539.736h-19.94c-0.763,0-1.512-0.172-2.166-0.496c-1.892-0.94-2.25-2.071-2.218-2.854
				c0.054-1.312,1.213-2.352,2.338-2.799c0.585-0.233,1.201-0.352,1.834-0.352h19.94c0.763,0,1.512,0.172,2.166,0.496
				c1.892,0.94,2.25,2.071,2.218,2.854c-0.054,1.312-1.213,2.352-2.338,2.799C1368.825,539.618,1368.209,539.736,1367.576,539.736z
				 M1347.424,534.736c-0.441,0-0.872,0.082-1.279,0.244l0,0c-0.666,0.266-1.37,0.888-1.395,1.469
				c-0.026,0.646,0.858,1.185,1.388,1.447c0.447,0.223,0.965,0.34,1.498,0.34h19.94c0.441,0,0.872-0.082,1.279-0.244
				c0.666-0.266,1.37-0.888,1.395-1.469c0.026-0.646-0.858-1.185-1.388-1.447c-0.447-0.223-0.965-0.34-1.498-0.34H1347.424z"/>
		</g>
		<g>
			<rect x="1347" y="527.236" class="st9" width="21" height="1.5"/>
		</g>
	</g>
	<g>
		<g>
			<path class="st11" d="M1308,593.986v-22.5c0-0.276,0.224-0.5,0.5-0.5h20c0.276,0,0.5,0.224,0.5,0.5v22.5H1308z"/>
			<path class="st9" d="M1329.75,594.736h-22.5v-23.25c0-0.689,0.561-1.25,1.25-1.25h20c0.689,0,1.25,0.561,1.25,1.25V594.736z
				 M1308.75,593.236h19.5v-21.5h-19.5V593.236z"/>
		</g>
		<g>
			<path class="st9" d="M1328.576,599.736h-19.94c-0.763,0-1.512-0.172-2.166-0.496c-1.892-0.94-2.25-2.071-2.218-2.854
				c0.054-1.312,1.213-2.352,2.338-2.799c0.585-0.233,1.201-0.352,1.834-0.352h19.94c0.763,0,1.512,0.172,2.166,0.496
				c1.892,0.94,2.25,2.071,2.218,2.854c-0.054,1.312-1.213,2.352-2.338,2.799C1329.825,599.618,1329.209,599.736,1328.576,599.736z
				 M1308.424,594.736c-0.441,0-0.872,0.082-1.279,0.244l0,0c-0.666,0.266-1.37,0.888-1.395,1.469
				c-0.026,0.646,0.858,1.185,1.388,1.447c0.447,0.223,0.965,0.34,1.498,0.34h19.94c0.441,0,0.872-0.082,1.279-0.244
				c0.666-0.266,1.37-0.888,1.395-1.469c0.026-0.646-0.858-1.185-1.388-1.447c-0.447-0.223-0.965-0.34-1.498-0.34H1308.424z"/>
		</g>
		<g>
			<rect x="1308" y="587.236" class="st9" width="21" height="1.5"/>
		</g>
	</g>
	<g>
		<g>
			<path class="st11" d="M1386,533.986v-22.5c0-0.276,0.224-0.5,0.5-0.5h20c0.276,0,0.5,0.224,0.5,0.5v22.5H1386z"/>
			<path class="st9" d="M1407.75,534.736h-22.5v-23.25c0-0.689,0.561-1.25,1.25-1.25h20c0.689,0,1.25,0.561,1.25,1.25V534.736z
				 M1386.75,533.236h19.5v-21.5h-19.5V533.236z"/>
		</g>
		<g>
			<path class="st9" d="M1406.576,539.736h-19.94c-0.763,0-1.512-0.172-2.166-0.496c-1.892-0.94-2.25-2.071-2.218-2.854
				c0.054-1.312,1.213-2.352,2.338-2.799c0.585-0.233,1.201-0.352,1.834-0.352h19.94c0.763,0,1.512,0.172,2.166,0.496
				c1.892,0.94,2.25,2.071,2.218,2.854c-0.054,1.312-1.213,2.352-2.338,2.799C1407.825,539.618,1407.209,539.736,1406.576,539.736z
				 M1386.424,534.736c-0.441,0-0.872,0.082-1.279,0.244l0,0c-0.666,0.266-1.37,0.888-1.395,1.469
				c-0.026,0.646,0.858,1.185,1.388,1.447c0.447,0.223,0.965,0.34,1.498,0.34h19.94c0.441,0,0.872-0.082,1.279-0.244
				c0.666-0.266,1.37-0.888,1.395-1.469c0.026-0.646-0.858-1.185-1.388-1.447c-0.447-0.223-0.965-0.34-1.498-0.34H1386.424z"/>
		</g>
		<g>
			<rect x="1386" y="527.236" class="st9" width="21" height="1.5"/>
		</g>
	</g>
	<g>
		<g>
			<path class="st11" d="M1386,440.986v-22.5c0-0.276,0.224-0.5,0.5-0.5h20c0.276,0,0.5,0.224,0.5,0.5v22.5H1386z"/>
			<path class="st9" d="M1407.75,441.736h-22.5v-23.25c0-0.689,0.561-1.25,1.25-1.25h20c0.689,0,1.25,0.561,1.25,1.25V441.736z
				 M1386.75,440.236h19.5v-21.5h-19.5V440.236z"/>
		</g>
		<g>
			<path class="st9" d="M1406.576,446.736h-19.94c-0.763,0-1.512-0.172-2.166-0.496c-1.892-0.94-2.25-2.071-2.218-2.854
				c0.054-1.312,1.213-2.352,2.338-2.799c0.585-0.233,1.201-0.352,1.834-0.352h19.94c0.763,0,1.512,0.172,2.166,0.496
				c1.892,0.94,2.25,2.071,2.218,2.854c-0.054,1.312-1.213,2.352-2.338,2.799C1407.825,446.618,1407.209,446.736,1406.576,446.736z
				 M1386.424,441.736c-0.441,0-0.872,0.082-1.279,0.244l0,0c-0.666,0.266-1.37,0.888-1.395,1.469
				c-0.026,0.646,0.858,1.185,1.388,1.447c0.447,0.223,0.965,0.34,1.498,0.34h19.94c0.441,0,0.872-0.082,1.279-0.244
				c0.666-0.266,1.37-0.888,1.395-1.469c0.026-0.646-0.858-1.185-1.388-1.447c-0.447-0.223-0.965-0.34-1.498-0.34H1386.424z"/>
		</g>
		<g>
			<rect x="1386" y="425.236" class="st9" width="21" height="1.5"/>
		</g>
	</g>
	<g>
		<g>
			<path class="st11" d="M1347,480.986v-22.5c0-0.276,0.224-0.5,0.5-0.5h20c0.276,0,0.5,0.224,0.5,0.5v22.5H1347z"/>
			<path class="st9" d="M1368.75,481.736h-22.5v-23.25c0-0.689,0.561-1.25,1.25-1.25h20c0.689,0,1.25,0.561,1.25,1.25V481.736z
				 M1347.75,480.236h19.5v-21.5h-19.5V480.236z"/>
		</g>
		<g>
			<path class="st9" d="M1367.576,486.736h-19.94c-0.763,0-1.512-0.172-2.166-0.496c-1.892-0.94-2.25-2.071-2.218-2.854
				c0.054-1.312,1.213-2.352,2.338-2.799c0.585-0.233,1.201-0.352,1.834-0.352h19.94c0.763,0,1.512,0.172,2.166,0.496
				c1.892,0.94,2.25,2.071,2.218,2.854c-0.054,1.312-1.213,2.352-2.338,2.799C1368.825,486.618,1368.209,486.736,1367.576,486.736z
				 M1347.424,481.736c-0.441,0-0.872,0.082-1.279,0.244l0,0c-0.666,0.266-1.37,0.888-1.395,1.469
				c-0.026,0.646,0.858,1.185,1.388,1.447c0.447,0.223,0.965,0.34,1.498,0.34h19.94c0.441,0,0.872-0.082,1.279-0.244
				c0.666-0.266,1.37-0.888,1.395-1.469c0.026-0.646-0.858-1.185-1.388-1.447c-0.447-0.223-0.965-0.34-1.498-0.34H1347.424z"/>
		</g>
		<g>
			<rect x="1347" y="465.236" class="st9" width="21" height="1.5"/>
		</g>
	</g>
	<g>
		<g>
			<path class="st11" d="M1386,593.986v-22.5c0-0.276,0.224-0.5,0.5-0.5h20c0.276,0,0.5,0.224,0.5,0.5v22.5H1386z"/>
			<path class="st9" d="M1407.75,594.736h-22.5v-23.25c0-0.689,0.561-1.25,1.25-1.25h20c0.689,0,1.25,0.561,1.25,1.25V594.736z
				 M1386.75,593.236h19.5v-21.5h-19.5V593.236z"/>
		</g>
		<g>
			<path class="st9" d="M1406.576,599.736h-19.94c-0.763,0-1.512-0.172-2.166-0.496c-1.892-0.94-2.25-2.071-2.218-2.854
				c0.054-1.312,1.213-2.352,2.338-2.799c0.585-0.233,1.201-0.352,1.834-0.352h19.94c0.763,0,1.512,0.172,2.166,0.496
				c1.892,0.94,2.25,2.071,2.218,2.854c-0.054,1.312-1.213,2.352-2.338,2.799C1407.825,599.618,1407.209,599.736,1406.576,599.736z
				 M1386.424,594.736c-0.441,0-0.872,0.082-1.279,0.244l0,0c-0.666,0.266-1.37,0.888-1.395,1.469
				c-0.026,0.646,0.858,1.185,1.388,1.447c0.447,0.223,0.965,0.34,1.498,0.34h19.94c0.441,0,0.872-0.082,1.279-0.244
				c0.666-0.266,1.37-0.888,1.395-1.469c0.026-0.646-0.858-1.185-1.388-1.447c-0.447-0.223-0.965-0.34-1.498-0.34H1386.424z"/>
		</g>
		<g>
			<rect x="1386" y="578.236" class="st9" width="21" height="1.5"/>
		</g>
	</g>
	<g>
		<rect x="1293" y="548.236" class="st9" width="167" height="1.5"/>
	</g>
	<g>
		<rect x="1343" y="574.986" class="st12" width="28" height="40"/>
		<path class="st9" d="M1371.75,615.736h-29.5v-41.5h29.5V615.736z M1343.75,614.236h26.5v-38.5h-26.5V614.236z"/>
	</g>
	<g>
		<path class="st9" d="M1369.688,575.736h-25.11c-0.91,0-1.803-0.163-2.582-0.471c-1.862-0.734-2.785-1.695-2.745-2.854
			c0.047-1.351,1.477-2.401,2.873-2.843h0.001c0.698-0.221,1.434-0.333,2.187-0.333h25.11c0.91,0,1.803,0.163,2.582,0.471
			c1.862,0.734,2.785,1.695,2.745,2.854c-0.047,1.351-1.477,2.401-2.873,2.843C1371.177,575.624,1370.441,575.736,1369.688,575.736z
			 M1342.576,570.999c-0.973,0.309-1.81,0.979-1.826,1.465c-0.012,0.333,0.454,0.877,1.797,1.407
			c0.605,0.239,1.309,0.365,2.031,0.365h25.11c0.6,0,1.183-0.089,1.735-0.263c0.973-0.309,1.81-0.979,1.826-1.465
			c0.012-0.333-0.454-0.877-1.797-1.407c-0.605-0.239-1.309-0.365-2.031-0.365h-25.11
			C1343.712,570.736,1343.129,570.825,1342.576,570.999L1342.576,570.999z"/>
	</g>
	<g>
		<rect x="1356.25" y="574.986" class="st9" width="1.5" height="40"/>
	</g>
</g>
<g>
	<g>
		<rect x="265" y="408" class="st11" width="37" height="207"/>
		<path class="st9" d="M302.75,615.75h-38.5v-208.5h38.5V615.75z M265.75,614.25h35.5v-205.5h-35.5V614.25z"/>
	</g>
	<g>
		<rect x="302" y="408" class="st0" width="130" height="207"/>
		<path class="st9" d="M432.75,615.75h-131.5v-208.5h131.5V615.75z M302.75,614.25h128.5v-205.5h-128.5V614.25z"/>
	</g>
	<g>
		<path class="st0" d="M432.708,407.693c1.99-0.979,6.328-4.746,0.07-7.373c-0.491-0.206-1.022-0.32-1.554-0.32h-131.87
			c-1.241,0-2.455,0.63-3.01,1.75c-0.521,1.051-0.604,2.632,0.856,4.891c0.547,0.848,1.491,1.359,2.494,1.359h131.702
			C431.852,408,432.298,407.894,432.708,407.693z"/>
		<path class="st9" d="M431.396,408.75H299.694c-1.268,0-2.436-0.636-3.124-1.701c-1.725-2.672-1.44-4.537-0.897-5.632
			c0.653-1.316,2.098-2.167,3.682-2.167h131.87c0.617,0,1.255,0.131,1.844,0.379c2.416,1.014,3.666,2.337,3.713,3.932
			c0.064,2.144-2.203,4.048-3.743,4.805C432.521,408.621,431.969,408.75,431.396,408.75z M299.354,400.75
			c-1.019,0-1.937,0.523-2.338,1.333c-0.538,1.086-0.265,2.482,0.813,4.151c0.411,0.636,1.107,1.016,1.864,1.016h131.702
			c0.341,0,0.67-0.077,0.98-0.23h0.001c1.195-0.588,2.945-2.079,2.905-3.415c-0.035-1.188-1.539-2.065-2.794-2.593
			c-0.408-0.171-0.845-0.262-1.264-0.262H299.354z"/>
	</g>
	<g>
		<path class="st0" d="M298.975,400h-35.79c-0.789,0-1.58,0.194-2.224,0.639C258.995,402,256.945,407,265.146,408H300
			C300,408,292,404.014,298.975,400z"/>
		<path class="st9" d="M300,408.75h-34.854c-4.808-0.581-6.229-2.448-6.591-3.914c-0.472-1.91,0.668-3.906,1.979-4.813
			c0.729-0.505,1.646-0.772,2.65-0.772h38.597l-2.433,1.4c-1.673,0.962-2.507,1.951-2.478,2.937
			c0.048,1.671,2.517,3.268,3.464,3.742l2.837,1.421H300z M263.185,400.75c-0.486,0-1.193,0.088-1.797,0.506
			c-0.748,0.518-1.703,1.899-1.377,3.221c0.352,1.424,2.208,2.411,5.226,2.779l32.296-0.006c-1.057-0.887-2.117-2.141-2.162-3.616
			c-0.031-1.023,0.414-1.988,1.324-2.884H263.185z"/>
	</g>
	<g>
		<path class="st0" d="M432.756,501.693c1.962-0.979,6.238-4.746,0.069-7.373c-0.484-0.206-1.007-0.32-1.531-0.32H301.306
			c-1.223,0-2.42,0.63-2.967,1.75c-0.513,1.051-0.595,2.632,0.843,4.891c0.54,0.848,1.47,1.359,2.458,1.359h129.821
			C431.912,502,432.351,501.894,432.756,501.693z"/>
		<path class="st9" d="M431.462,502.75H301.641c-1.256,0-2.411-0.638-3.091-1.706c-1.699-2.668-1.418-4.53-0.884-5.623
			c0.644-1.318,2.073-2.171,3.641-2.171h129.986c0.61,0,1.241,0.132,1.826,0.38c2.383,1.015,3.615,2.336,3.663,3.929
			c0.064,2.143-2.172,4.047-3.691,4.805C432.578,502.62,432.03,502.75,431.462,502.75z M301.307,494.75
			c-0.999,0-1.899,0.521-2.293,1.329c-0.532,1.089-0.262,2.488,0.802,4.16c0.403,0.633,1.085,1.011,1.826,1.011h129.821
			c0.333,0,0.655-0.077,0.958-0.229h0.001c1.178-0.588,2.902-2.08,2.862-3.418c-0.036-1.19-1.516-2.067-2.751-2.593
			c-0.4-0.171-0.828-0.261-1.238-0.261H301.307z"/>
	</g>
	<g>
		<path class="st0" d="M300.909,494H262.83c-0.839,0-1.681,0.194-2.366,0.639C258.372,496,257.529,502,264.917,502H302
			C302,502,294.112,499.014,300.909,494z"/>
		<path class="st9" d="M302,502.75h-37.083c-4.699,0-6.074-2.267-6.475-3.617c-0.625-2.108,0.351-4.301,1.613-5.123
			c0.765-0.497,1.724-0.76,2.775-0.76h40.359l-1.835,1.354c-1.215,0.896-2.625,2.247-2.44,3.598c0.214,1.573,2.493,2.77,3.353,3.098
			l3.801,1.451H302z M262.83,494.75c-0.76,0-1.437,0.179-1.957,0.518c-0.798,0.52-1.403,2.06-0.994,3.438
			c0.487,1.641,2.275,2.544,5.037,2.544h34.323c-0.859-0.699-1.647-1.648-1.812-2.842c-0.167-1.217,0.33-2.442,1.479-3.658H262.83z"
			/>
	</g>
	<g>
		<path class="st0" d="M430.125,400h6.173c1.354,0,2.679-0.656,3.344-1.845c0.452-0.809,0.592-1.815-0.279-2.878
			c-0.698-0.852-1.788-1.277-2.884-1.277H295.186c0,0-4.918,3,0,6H430.125z"/>
		<path class="st9" d="M436.297,400.75H294.976l-0.18-0.11c-1.689-1.03-2.545-2.217-2.545-3.529c0-2.174,2.441-3.688,2.545-3.751
			l0.18-0.11h141.503c1.394,0,2.656,0.565,3.464,1.551c0.933,1.139,1.059,2.46,0.353,3.72
			C439.527,399.896,437.995,400.75,436.297,400.75z M295.401,399.25h140.896c1.155,0,2.186-0.56,2.69-1.461
			c0.405-0.725,0.34-1.372-0.205-2.037c-0.522-0.637-1.362-1.002-2.304-1.002H295.41c-0.583,0.407-1.662,1.366-1.66,2.364
			C293.751,397.829,294.307,398.547,295.401,399.25z"/>
	</g>
	<g>
		<path class="st0" d="M295,394h-35.359c-1.329,0-2.63,0.655-3.286,1.841c-0.448,0.809-0.587,1.818,0.273,2.882
			c0.689,0.852,1.761,1.277,2.84,1.277H295C295,400,291.122,397,295,394z"/>
		<path class="st9" d="M295,400.75h-35.532c-1.377,0-2.625-0.567-3.423-1.556c-0.919-1.137-1.042-2.458-0.346-3.716
			c0.76-1.375,2.271-2.228,3.942-2.228h37.554l-1.736,1.343c-0.948,0.733-1.43,1.503-1.433,2.289
			c-0.004,1.382,1.42,2.515,1.435,2.526l1.71,1.34L295,400.75z M259.641,394.75c-1.126,0-2.133,0.557-2.629,1.454
			c-0.403,0.729-0.34,1.38,0.2,2.048c0.513,0.635,1.335,0.999,2.256,0.999h33.847c-0.421-0.625-0.789-1.436-0.789-2.361
			c0-0.751,0.235-1.466,0.701-2.139H259.641z"/>
	</g>
	<g>
		<g>
			<path class="st11" d="M378,441v-22.5c0-0.276-0.224-0.5-0.5-0.5h-20c-0.276,0-0.5,0.224-0.5,0.5V441H378z"/>
			<path class="st9" d="M378.75,441.75h-22.5V418.5c0-0.689,0.561-1.25,1.25-1.25h20c0.689,0,1.25,0.561,1.25,1.25V441.75z
				 M357.75,440.25h19.5v-21.5h-19.5V440.25z"/>
		</g>
		<g>
			<path class="st9" d="M377.365,446.75h-19.94c-0.633,0-1.25-0.118-1.835-0.352c-1.125-0.448-2.284-1.487-2.337-2.8
				c-0.032-0.782,0.327-1.912,2.218-2.853c0.654-0.324,1.402-0.496,2.166-0.496h19.94c0.633,0,1.25,0.118,1.835,0.352l0,0
				c1.125,0.448,2.284,1.487,2.337,2.8c0.032,0.782-0.327,1.912-2.218,2.853C378.876,446.578,378.128,446.75,377.365,446.75z
				 M357.635,441.75c-0.533,0-1.051,0.117-1.498,0.34c-0.529,0.263-1.414,0.801-1.387,1.447c0.024,0.581,0.728,1.203,1.395,1.469
				c0.407,0.162,0.837,0.244,1.279,0.244h19.94c0.533,0,1.051-0.117,1.498-0.34c0.529-0.263,1.414-0.801,1.387-1.447
				c-0.024-0.581-0.728-1.203-1.395-1.469l0,0c-0.407-0.162-0.837-0.244-1.279-0.244H357.635z"/>
		</g>
		<g>
			<rect x="357" y="434.25" class="st9" width="21" height="1.5"/>
		</g>
	</g>
	<g>
		<g>
			<path class="st11" d="M339,481v-22.5c0-0.276-0.224-0.5-0.5-0.5h-20c-0.276,0-0.5,0.224-0.5,0.5V481H339z"/>
			<path class="st9" d="M339.75,481.75h-22.5V458.5c0-0.689,0.561-1.25,1.25-1.25h20c0.689,0,1.25,0.561,1.25,1.25V481.75z
				 M318.75,480.25h19.5v-21.5h-19.5V480.25z"/>
		</g>
		<g>
			<path class="st9" d="M338.365,486.75h-19.94c-0.633,0-1.25-0.118-1.835-0.352c-1.125-0.448-2.284-1.487-2.337-2.8
				c-0.032-0.782,0.327-1.912,2.218-2.853c0.654-0.324,1.402-0.496,2.166-0.496h19.94c0.633,0,1.25,0.118,1.835,0.352l0,0
				c1.125,0.448,2.284,1.487,2.337,2.8c0.032,0.782-0.327,1.912-2.218,2.853C339.876,486.578,339.128,486.75,338.365,486.75z
				 M318.635,481.75c-0.533,0-1.051,0.117-1.498,0.34c-0.529,0.263-1.414,0.801-1.387,1.447c0.024,0.581,0.728,1.203,1.395,1.469
				c0.407,0.162,0.837,0.244,1.279,0.244h19.94c0.533,0,1.051-0.117,1.498-0.34c0.529-0.263,1.414-0.801,1.387-1.447
				c-0.024-0.581-0.728-1.203-1.395-1.469l0,0c-0.407-0.162-0.837-0.244-1.279-0.244H318.635z"/>
		</g>
		<g>
			<rect x="318" y="474.25" class="st9" width="21" height="1.5"/>
		</g>
	</g>
	<g>
		<g>
			<path class="st11" d="M418,481v-22.5c0-0.276-0.224-0.5-0.5-0.5h-20c-0.276,0-0.5,0.224-0.5,0.5V481H418z"/>
			<path class="st9" d="M418.75,481.75h-22.5V458.5c0-0.689,0.561-1.25,1.25-1.25h20c0.689,0,1.25,0.561,1.25,1.25V481.75z
				 M397.75,480.25h19.5v-21.5h-19.5V480.25z"/>
		</g>
		<g>
			<path class="st9" d="M417.365,486.75h-19.94c-0.633,0-1.25-0.118-1.835-0.352c-1.125-0.448-2.284-1.487-2.337-2.8
				c-0.032-0.782,0.327-1.912,2.218-2.853c0.654-0.324,1.402-0.496,2.166-0.496h19.94c0.633,0,1.25,0.118,1.835,0.352l0,0
				c1.125,0.448,2.284,1.487,2.337,2.8c0.032,0.782-0.327,1.912-2.218,2.853C418.876,486.578,418.128,486.75,417.365,486.75z
				 M397.635,481.75c-0.533,0-1.051,0.117-1.498,0.34c-0.529,0.263-1.414,0.801-1.387,1.447c0.024,0.581,0.728,1.203,1.395,1.469
				c0.407,0.162,0.837,0.244,1.279,0.244h19.94c0.533,0,1.051-0.117,1.498-0.34c0.529-0.263,1.414-0.801,1.387-1.447
				c-0.024-0.581-0.728-1.203-1.395-1.469l0,0c-0.407-0.162-0.837-0.244-1.279-0.244H397.635z"/>
		</g>
		<g>
			<rect x="397" y="474.25" class="st9" width="21" height="1.5"/>
		</g>
	</g>
	<g>
		<g>
			<path class="st11" d="M418,441v-22.5c0-0.276-0.224-0.5-0.5-0.5h-20c-0.276,0-0.5,0.224-0.5,0.5V441H418z"/>
			<path class="st9" d="M418.75,441.75h-22.5V418.5c0-0.689,0.561-1.25,1.25-1.25h20c0.689,0,1.25,0.561,1.25,1.25V441.75z
				 M397.75,440.25h19.5v-21.5h-19.5V440.25z"/>
		</g>
		<g>
			<path class="st9" d="M417.365,446.75h-19.94c-0.633,0-1.25-0.118-1.835-0.352c-1.125-0.448-2.284-1.487-2.337-2.8
				c-0.032-0.782,0.327-1.912,2.218-2.853c0.654-0.324,1.402-0.496,2.166-0.496h19.94c0.633,0,1.25,0.118,1.835,0.352l0,0
				c1.125,0.448,2.284,1.487,2.337,2.8c0.032,0.782-0.327,1.912-2.218,2.853C418.876,446.578,418.128,446.75,417.365,446.75z
				 M397.635,441.75c-0.533,0-1.051,0.117-1.498,0.34c-0.529,0.263-1.414,0.801-1.387,1.447c0.024,0.581,0.728,1.203,1.395,1.469
				c0.407,0.162,0.837,0.244,1.279,0.244h19.94c0.533,0,1.051-0.117,1.498-0.34c0.529-0.263,1.414-0.801,1.387-1.447
				c-0.024-0.581-0.728-1.203-1.395-1.469l0,0c-0.407-0.162-0.837-0.244-1.279-0.244H397.635z"/>
		</g>
		<g>
			<rect x="397" y="434.25" class="st9" width="21" height="1.5"/>
		</g>
	</g>
	<g>
		<g>
			<path class="st11" d="M418,534v-22.5c0-0.276-0.224-0.5-0.5-0.5h-20c-0.276,0-0.5,0.224-0.5,0.5V534H418z"/>
			<path class="st9" d="M418.75,534.75h-22.5V511.5c0-0.689,0.561-1.25,1.25-1.25h20c0.689,0,1.25,0.561,1.25,1.25V534.75z
				 M397.75,533.25h19.5v-21.5h-19.5V533.25z"/>
		</g>
		<g>
			<path class="st9" d="M417.365,539.75h-19.94c-0.633,0-1.25-0.118-1.835-0.352c-1.125-0.448-2.284-1.487-2.337-2.8
				c-0.032-0.782,0.327-1.912,2.218-2.853c0.654-0.324,1.402-0.496,2.166-0.496h19.94c0.633,0,1.25,0.118,1.835,0.352l0,0
				c1.125,0.448,2.284,1.487,2.337,2.8c0.032,0.782-0.327,1.912-2.218,2.853C418.876,539.578,418.128,539.75,417.365,539.75z
				 M397.635,534.75c-0.533,0-1.051,0.117-1.498,0.34c-0.529,0.263-1.414,0.801-1.387,1.447c0.024,0.581,0.728,1.203,1.395,1.469
				c0.407,0.162,0.837,0.244,1.279,0.244h19.94c0.533,0,1.051-0.117,1.498-0.34c0.529-0.263,1.414-0.801,1.387-1.447
				c-0.024-0.581-0.728-1.203-1.395-1.469l0,0c-0.407-0.162-0.837-0.244-1.279-0.244H397.635z"/>
		</g>
		<g>
			<rect x="397" y="527.25" class="st9" width="21" height="1.5"/>
		</g>
	</g>
	<g>
		<g>
			<path class="st11" d="M378,534v-22.5c0-0.276-0.224-0.5-0.5-0.5h-20c-0.276,0-0.5,0.224-0.5,0.5V534H378z"/>
			<path class="st9" d="M378.75,534.75h-22.5V511.5c0-0.689,0.561-1.25,1.25-1.25h20c0.689,0,1.25,0.561,1.25,1.25V534.75z
				 M357.75,533.25h19.5v-21.5h-19.5V533.25z"/>
		</g>
		<g>
			<path class="st9" d="M377.365,539.75h-19.94c-0.633,0-1.25-0.118-1.835-0.352c-1.125-0.448-2.284-1.487-2.337-2.8
				c-0.032-0.782,0.327-1.912,2.218-2.853c0.654-0.324,1.402-0.496,2.166-0.496h19.94c0.633,0,1.25,0.118,1.835,0.352l0,0
				c1.125,0.448,2.284,1.487,2.337,2.8c0.032,0.782-0.327,1.912-2.218,2.853C378.876,539.578,378.128,539.75,377.365,539.75z
				 M357.635,534.75c-0.533,0-1.051,0.117-1.498,0.34c-0.529,0.263-1.414,0.801-1.387,1.447c0.024,0.581,0.728,1.203,1.395,1.469
				c0.407,0.162,0.837,0.244,1.279,0.244h19.94c0.533,0,1.051-0.117,1.498-0.34c0.529-0.263,1.414-0.801,1.387-1.447
				c-0.024-0.581-0.728-1.203-1.395-1.469l0,0c-0.407-0.162-0.837-0.244-1.279-0.244H357.635z"/>
		</g>
		<g>
			<rect x="357" y="527.25" class="st9" width="21" height="1.5"/>
		</g>
	</g>
	<g>
		<g>
			<path class="st11" d="M417,594v-22.5c0-0.276-0.224-0.5-0.5-0.5h-20c-0.276,0-0.5,0.224-0.5,0.5V594H417z"/>
			<path class="st9" d="M417.75,594.75h-22.5V571.5c0-0.689,0.561-1.25,1.25-1.25h20c0.689,0,1.25,0.561,1.25,1.25V594.75z
				 M396.75,593.25h19.5v-21.5h-19.5V593.25z"/>
		</g>
		<g>
			<path class="st9" d="M416.365,599.75h-19.94c-0.633,0-1.25-0.118-1.835-0.352c-1.125-0.448-2.284-1.487-2.337-2.8
				c-0.032-0.782,0.327-1.912,2.218-2.853c0.654-0.324,1.402-0.496,2.166-0.496h19.94c0.633,0,1.25,0.118,1.835,0.352l0,0
				c1.125,0.448,2.284,1.487,2.337,2.8c0.032,0.782-0.327,1.912-2.218,2.853C417.876,599.578,417.128,599.75,416.365,599.75z
				 M396.635,594.75c-0.533,0-1.051,0.117-1.498,0.34c-0.529,0.263-1.414,0.801-1.387,1.447c0.024,0.581,0.728,1.203,1.395,1.469
				c0.407,0.162,0.837,0.244,1.279,0.244h19.94c0.533,0,1.051-0.117,1.498-0.34c0.529-0.263,1.414-0.801,1.387-1.447
				c-0.024-0.581-0.728-1.203-1.395-1.469l0,0c-0.407-0.162-0.837-0.244-1.279-0.244H396.635z"/>
		</g>
		<g>
			<rect x="396" y="587.25" class="st9" width="21" height="1.5"/>
		</g>
	</g>
	<g>
		<g>
			<path class="st11" d="M339,534v-22.5c0-0.276-0.224-0.5-0.5-0.5h-20c-0.276,0-0.5,0.224-0.5,0.5V534H339z"/>
			<path class="st9" d="M339.75,534.75h-22.5V511.5c0-0.689,0.561-1.25,1.25-1.25h20c0.689,0,1.25,0.561,1.25,1.25V534.75z
				 M318.75,533.25h19.5v-21.5h-19.5V533.25z"/>
		</g>
		<g>
			<path class="st9" d="M338.365,539.75h-19.94c-0.633,0-1.25-0.118-1.835-0.352c-1.125-0.448-2.284-1.487-2.337-2.8
				c-0.032-0.782,0.327-1.912,2.218-2.853c0.654-0.324,1.402-0.496,2.166-0.496h19.94c0.633,0,1.25,0.118,1.835,0.352l0,0
				c1.125,0.448,2.284,1.487,2.337,2.8c0.032,0.782-0.327,1.912-2.218,2.853C339.876,539.578,339.128,539.75,338.365,539.75z
				 M318.635,534.75c-0.533,0-1.051,0.117-1.498,0.34c-0.529,0.263-1.414,0.801-1.387,1.447c0.024,0.581,0.728,1.203,1.395,1.469
				c0.407,0.162,0.837,0.244,1.279,0.244h19.94c0.533,0,1.051-0.117,1.498-0.34c0.529-0.263,1.414-0.801,1.387-1.447
				c-0.024-0.581-0.728-1.203-1.395-1.469l0,0c-0.407-0.162-0.837-0.244-1.279-0.244H318.635z"/>
		</g>
		<g>
			<rect x="318" y="527.25" class="st9" width="21" height="1.5"/>
		</g>
	</g>
	<g>
		<g>
			<path class="st11" d="M339,441v-22.5c0-0.276-0.224-0.5-0.5-0.5h-20c-0.276,0-0.5,0.224-0.5,0.5V441H339z"/>
			<path class="st9" d="M339.75,441.75h-22.5V418.5c0-0.689,0.561-1.25,1.25-1.25h20c0.689,0,1.25,0.561,1.25,1.25V441.75z
				 M318.75,440.25h19.5v-21.5h-19.5V440.25z"/>
		</g>
		<g>
			<path class="st9" d="M338.365,446.75h-19.94c-0.633,0-1.25-0.118-1.835-0.352c-1.125-0.448-2.284-1.487-2.337-2.8
				c-0.032-0.782,0.327-1.912,2.218-2.853c0.654-0.324,1.402-0.496,2.166-0.496h19.94c0.633,0,1.25,0.118,1.835,0.352l0,0
				c1.125,0.448,2.284,1.487,2.337,2.8c0.032,0.782-0.327,1.912-2.218,2.853C339.876,446.578,339.128,446.75,338.365,446.75z
				 M318.635,441.75c-0.533,0-1.051,0.117-1.498,0.34c-0.529,0.263-1.414,0.801-1.387,1.447c0.024,0.581,0.728,1.203,1.395,1.469
				c0.407,0.162,0.837,0.244,1.279,0.244h19.94c0.533,0,1.051-0.117,1.498-0.34c0.529-0.263,1.414-0.801,1.387-1.447
				c-0.024-0.581-0.728-1.203-1.395-1.469l0,0c-0.407-0.162-0.837-0.244-1.279-0.244H318.635z"/>
		</g>
		<g>
			<rect x="318" y="425.25" class="st9" width="21" height="1.5"/>
		</g>
	</g>
	<g>
		<g>
			<path class="st11" d="M378,481v-22.5c0-0.276-0.224-0.5-0.5-0.5h-20c-0.276,0-0.5,0.224-0.5,0.5V481H378z"/>
			<path class="st9" d="M378.75,481.75h-22.5V458.5c0-0.689,0.561-1.25,1.25-1.25h20c0.689,0,1.25,0.561,1.25,1.25V481.75z
				 M357.75,480.25h19.5v-21.5h-19.5V480.25z"/>
		</g>
		<g>
			<path class="st9" d="M377.365,486.75h-19.94c-0.633,0-1.25-0.118-1.835-0.352c-1.125-0.448-2.284-1.487-2.337-2.8
				c-0.032-0.782,0.327-1.912,2.218-2.853c0.654-0.324,1.402-0.496,2.166-0.496h19.94c0.633,0,1.25,0.118,1.835,0.352l0,0
				c1.125,0.448,2.284,1.487,2.337,2.8c0.032,0.782-0.327,1.912-2.218,2.853C378.876,486.578,378.128,486.75,377.365,486.75z
				 M357.635,481.75c-0.533,0-1.051,0.117-1.498,0.34c-0.529,0.263-1.414,0.801-1.387,1.447c0.024,0.581,0.728,1.203,1.395,1.469
				c0.407,0.162,0.837,0.244,1.279,0.244h19.94c0.533,0,1.051-0.117,1.498-0.34c0.529-0.263,1.414-0.801,1.387-1.447
				c-0.024-0.581-0.728-1.203-1.395-1.469l0,0c-0.407-0.162-0.837-0.244-1.279-0.244H357.635z"/>
		</g>
		<g>
			<rect x="357" y="465.25" class="st9" width="21" height="1.5"/>
		</g>
	</g>
	<g>
		<g>
			<path class="st11" d="M339,594v-22.5c0-0.276-0.224-0.5-0.5-0.5h-20c-0.276,0-0.5,0.224-0.5,0.5V594H339z"/>
			<path class="st9" d="M339.75,594.75h-22.5V571.5c0-0.689,0.561-1.25,1.25-1.25h20c0.689,0,1.25,0.561,1.25,1.25V594.75z
				 M318.75,593.25h19.5v-21.5h-19.5V593.25z"/>
		</g>
		<g>
			<path class="st9" d="M338.365,599.75h-19.94c-0.633,0-1.25-0.118-1.835-0.352c-1.125-0.448-2.284-1.487-2.337-2.8
				c-0.032-0.782,0.327-1.912,2.218-2.853c0.654-0.324,1.402-0.496,2.166-0.496h19.94c0.633,0,1.25,0.118,1.835,0.352l0,0
				c1.125,0.448,2.284,1.487,2.337,2.8c0.032,0.782-0.327,1.912-2.218,2.853C339.876,599.578,339.128,599.75,338.365,599.75z
				 M318.635,594.75c-0.533,0-1.051,0.117-1.498,0.34c-0.529,0.263-1.414,0.801-1.387,1.447c0.024,0.581,0.728,1.203,1.395,1.469
				c0.407,0.162,0.837,0.244,1.279,0.244h19.94c0.533,0,1.051-0.117,1.498-0.34c0.529-0.263,1.414-0.801,1.387-1.447
				c-0.024-0.581-0.728-1.203-1.395-1.469l0,0c-0.407-0.162-0.837-0.244-1.279-0.244H318.635z"/>
		</g>
		<g>
			<rect x="318" y="578.25" class="st9" width="21" height="1.5"/>
		</g>
	</g>
	<g>
		<rect x="265" y="548.25" class="st9" width="167" height="1.5"/>
	</g>
	<g>
		<rect x="354" y="575" class="st12" width="28" height="40"/>
		<path class="st9" d="M382.75,615.75h-29.5v-41.5h29.5V615.75z M354.75,614.25h26.5v-38.5h-26.5V614.25z"/>
	</g>
	<g>
		<path class="st9" d="M380.422,575.75h-25.11c-0.753,0-1.489-0.112-2.187-0.333c-1.396-0.441-2.827-1.492-2.874-2.843
			c-0.041-1.158,0.883-2.119,2.745-2.854c0.779-0.308,1.672-0.471,2.582-0.471h25.11c0.753,0,1.489,0.112,2.187,0.333l0,0
			c1.396,0.441,2.827,1.492,2.874,2.843c0.041,1.158-0.883,2.119-2.745,2.854C382.225,575.587,381.332,575.75,380.422,575.75z
			 M355.578,570.75c-0.723,0-1.425,0.126-2.031,0.365c-1.342,0.53-1.808,1.074-1.796,1.407c0.017,0.485,0.854,1.156,1.827,1.465
			c0.552,0.174,1.135,0.263,1.735,0.263h25.11c0.723,0,1.425-0.126,2.031-0.365c1.342-0.53,1.808-1.074,1.796-1.407
			c-0.017-0.485-0.854-1.156-1.827-1.465l0,0c-0.552-0.174-1.135-0.263-1.735-0.263H355.578z"/>
	</g>
	<g>
		<rect x="367.25" y="575" class="st9" width="1.5" height="40"/>
	</g>
</g>
<g>
	<g>
		<rect x="1177" y="479.986" class="st13" width="88" height="135"/>
		<path class="st9" d="M1265.75,615.736h-89.5v-136.5h89.5V615.736z M1177.75,614.236h86.5v-133.5h-86.5V614.236z"/>
	</g>
	<g>
		<polygon class="st0" points="1177,614.986 1061,614.986 1061,480 1119,450.986 1177,479.986 		"/>
		<path class="st9" d="M1177.75,615.736h-117.5v-136.2l58.75-29.389l0.335,0.168l58.415,29.207V615.736z M1061.75,614.236h114.5
			V480.45L1119,451.825l-57.25,28.639V614.236z"/>
	</g>
	<g>
		<path class="st13" d="M1119.269,442.163L1177,479.986h88c0,0,3.961-0.66,2.764-4.662c-0.573-1.916-2.004-3.458-3.792-4.352
			l-56.283-28.141c-1.111-0.555-2.336-0.845-3.578-0.845h-84.79C1119.226,441.986,1119.189,442.11,1119.269,442.163z"/>
		<path class="st9" d="M1265.062,480.736h-88.286l-0.188-0.123l-57.731-37.824c-0.315-0.207-0.454-0.589-0.346-0.95
			c0.107-0.36,0.434-0.603,0.81-0.603h84.79c1.352,0,2.705,0.319,3.913,0.924l56.282,28.142c2.046,1.022,3.568,2.774,4.177,4.808
			c0.425,1.423,0.324,2.651-0.301,3.653c-1,1.604-2.976,1.949-3.06,1.964L1265.062,480.736z M1177.224,479.236h87.702
			c0.255-0.056,1.423-0.358,1.989-1.275c0.382-0.619,0.427-1.434,0.131-2.422c-0.49-1.638-1.732-3.058-3.409-3.896l-56.282-28.142
			c-1.002-0.501-2.123-0.766-3.243-0.766h-82.599L1177.224,479.236z"/>
	</g>
	<g>
		<path class="st0" d="M1059.927,479.883c-1.803-0.293-5.182-0.418-4.513-4.743c0.197-1.273,1.022-2.368,2.179-2.937l60.963-29.998
			c0.28-0.138,0.609-0.137,0.889,0.003l59.843,29.922c1.555,0.777,2.743,2.206,3.035,3.92c0.301,1.765-0.355,3.681-4.456,3.913
			c-0.523,0.03-1.05-0.066-1.522-0.293l-56.901-27.47c-0.279-0.135-0.605-0.132-0.882,0.006l-56.783,27.378
			C1061.207,479.879,1060.56,479.986,1059.927,479.883z"/>
		<path class="st9" d="M1177.682,480.718c-0.585,0-1.155-0.127-1.664-0.372l-56.901-27.47c-0.069-0.036-0.149-0.033-0.221,0.001
			l-56.792,27.383c-0.703,0.363-1.503,0.492-2.297,0.364l-0.427-0.064c-1.279-0.187-3.03-0.441-4.057-1.829
			c-0.672-0.909-0.891-2.156-0.651-3.705c0.233-1.507,1.201-2.813,2.589-3.495l60.963-29.998c0.489-0.24,1.071-0.236,1.555,0.005
			l59.844,29.922c1.833,0.916,3.118,2.586,3.438,4.465c0.206,1.21-0.013,2.229-0.651,3.031c-0.832,1.044-2.346,1.635-4.502,1.757
			C1177.832,480.716,1177.757,480.718,1177.682,480.718z M1119.005,451.349c0.259,0,0.52,0.059,0.764,0.176l56.901,27.47
			c0.345,0.167,0.741,0.249,1.153,0.22c1.687-0.096,2.866-0.508,3.412-1.193c0.366-0.46,0.479-1.063,0.347-1.845
			c-0.24-1.41-1.224-2.672-2.63-3.375l-59.844-29.922c-0.07-0.035-0.154-0.034-0.223-0.001l-60.963,29.998
			c-0.949,0.467-1.61,1.355-1.769,2.379c-0.176,1.139-0.05,2.009,0.376,2.584c0.653,0.886,1.991,1.08,3.065,1.236l0.451,0.068l0,0
			l0,0c0.473,0.075,0.952-0.002,1.386-0.226l56.802-27.388C1118.477,451.409,1118.74,451.349,1119.005,451.349z"/>
	</g>
	<g>
		<path class="st13" d="M1086,614.986V589.52c0-0.287,0.224-0.52,0.5-0.52h15c0.276,0,0.5,0.233,0.5,0.52v25.467H1086z"/>
		<path class="st9" d="M1102.75,615.736h-17.5V589.52c0-0.7,0.561-1.27,1.25-1.27h15c0.689,0,1.25,0.569,1.25,1.27V615.736z
			 M1086.75,614.236h14.5V589.75h-14.5V614.236z"/>
	</g>
	<g>
		<path class="st13" d="M1133,614.986V589.52c0-0.287,0.224-0.52,0.5-0.52h15c0.276,0,0.5,0.233,0.5,0.52v25.467H1133z"/>
		<path class="st9" d="M1149.75,615.736h-17.5V589.52c0-0.7,0.561-1.27,1.25-1.27h15c0.689,0,1.25,0.569,1.25,1.27V615.736z
			 M1133.75,614.236h14.5V589.75h-14.5V614.236z"/>
	</g>
	<g>
		<g>
			<path class="st13" d="M1075,509.025v-23.558c0-0.266,0.224-0.481,0.5-0.481h16c0.276,0,0.5,0.215,0.5,0.481v23.558H1075z"/>
			<path class="st9" d="M1092.75,509.774h-18.5v-24.308c0-0.679,0.561-1.23,1.25-1.23h16c0.689,0,1.25,0.552,1.25,1.23V509.774z
				 M1075.75,508.274h15.5v-22.538h-15.5V508.274z"/>
		</g>
		<g>
			<path class="st9" d="M1095,509.986h-23c-0.553,0-1-0.447-1-1s0.447-1,1-1h23c0.553,0,1,0.447,1,1S1095.553,509.986,1095,509.986z
				"/>
		</g>
		<g>
			<rect x="1075" y="494.813" class="st9" width="17" height="1.5"/>
		</g>
	</g>
	<g>
		<g>
			<path class="st13" d="M1075,560.025v-23.558c0-0.266,0.224-0.481,0.5-0.481h16c0.276,0,0.5,0.215,0.5,0.481v23.558H1075z"/>
			<path class="st9" d="M1092.75,560.774h-18.5v-24.308c0-0.679,0.561-1.23,1.25-1.23h16c0.689,0,1.25,0.552,1.25,1.23V560.774z
				 M1075.75,559.274h15.5v-22.538h-15.5V559.274z"/>
		</g>
		<g>
			<path class="st9" d="M1095,560.986h-23c-0.553,0-1-0.447-1-1s0.447-1,1-1h23c0.553,0,1,0.447,1,1S1095.553,560.986,1095,560.986z
				"/>
		</g>
		<g>
			<rect x="1075" y="552.544" class="st9" width="17" height="1.5"/>
		</g>
	</g>
	<g>
		<g>
			<path class="st13" d="M1110,509.025v-23.558c0-0.266,0.224-0.481,0.5-0.481h16c0.276,0,0.5,0.215,0.5,0.481v23.558H1110z"/>
			<path class="st9" d="M1127.75,509.774h-18.5v-24.308c0-0.679,0.561-1.23,1.25-1.23h16c0.689,0,1.25,0.552,1.25,1.23V509.774z
				 M1110.75,508.274h15.5v-22.538h-15.5V508.274z"/>
		</g>
		<g>
			<path class="st9" d="M1130,509.986h-23c-0.553,0-1-0.447-1-1s0.447-1,1-1h23c0.553,0,1,0.447,1,1S1130.553,509.986,1130,509.986z
				"/>
		</g>
		<g>
			<rect x="1110" y="494.813" class="st9" width="17" height="1.5"/>
		</g>
	</g>
	<g>
		<g>
			<path class="st13" d="M1145,509.025v-23.558c0-0.266,0.224-0.481,0.5-0.481h16c0.276,0,0.5,0.215,0.5,0.481v23.558H1145z"/>
			<path class="st9" d="M1162.75,509.774h-18.5v-24.308c0-0.679,0.561-1.23,1.25-1.23h16c0.689,0,1.25,0.552,1.25,1.23V509.774z
				 M1145.75,508.274h15.5v-22.538h-15.5V508.274z"/>
		</g>
		<g>
			<path class="st9" d="M1165,509.986h-23c-0.553,0-1-0.447-1-1s0.447-1,1-1h23c0.553,0,1,0.447,1,1S1165.553,509.986,1165,509.986z
				"/>
		</g>
		<g>
			<rect x="1145" y="494.813" class="st9" width="17" height="1.5"/>
		</g>
	</g>
	<g>
		<path class="st0" d="M1061,525.986c0,0-5-3.429,0-6h116c0,0,5,2.571,0,6H1061z"/>
		<path class="st9" d="M1177.232,526.736h-116.465l-0.191-0.132c-0.275-0.188-2.682-1.904-2.543-4.1
			c0.08-1.26,0.963-2.331,2.624-3.186l0.161-0.083h116.363l0.161,0.083c0.102,0.053,2.491,1.305,2.624,3.406
			c0.086,1.358-0.77,2.664-2.543,3.879L1177.232,526.736z M1061.245,525.236h115.518c0.852-0.614,1.765-1.495,1.707-2.417
			c-0.065-1.026-1.251-1.83-1.669-2.083h-115.615c-1.056,0.573-1.612,1.198-1.655,1.86
			C1059.463,523.636,1060.615,524.75,1061.245,525.236z"/>
	</g>
	<g>
		<path class="st0" d="M1177,519.986h88c0,0,5,3.429,0,6h-88C1177,525.986,1182,522.558,1177,519.986z"/>
		<path class="st9" d="M1265.182,526.736h-90.586l1.979-1.368c0.552-0.381,1.969-1.623,1.895-2.771
			c-0.046-0.694-0.655-1.348-1.812-1.943l-2.756-1.417h91.331l0.191,0.132c0.275,0.188,2.682,1.904,2.543,4.1
			c-0.08,1.26-0.963,2.331-2.624,3.186L1265.182,526.736z M1178.91,525.236h85.904c1.056-0.573,1.612-1.198,1.655-1.86
			c0.067-1.039-1.085-2.153-1.715-2.64h-85.526c0.45,0.538,0.697,1.129,0.738,1.769
			C1180.033,523.567,1179.505,524.518,1178.91,525.236z"/>
	</g>
	<g>
		<rect x="1061" y="569.236" class="st9" width="204" height="1.5"/>
	</g>
	<g>
		<path class="st9" d="M1105,589.986h-22c-0.553,0-1-0.447-1-1s0.447-1,1-1h22c0.553,0,1,0.447,1,1S1105.553,589.986,1105,589.986z"
			/>
	</g>
	<g>
		<path class="st9" d="M1152,589.986h-22c-0.553,0-1-0.447-1-1s0.447-1,1-1h22c0.553,0,1,0.447,1,1S1152.553,589.986,1152,589.986z"
			/>
	</g>
	<g>
		<g>
			<path class="st13" d="M1110,560.025v-23.558c0-0.266,0.685-0.481,1.529-0.481h48.941c0.845,0,1.529,0.215,1.529,0.481v23.558
				H1110z"/>
			<path class="st9" d="M1162.75,560.774h-53.5v-24.308c0-0.771,0.853-1.23,2.279-1.23h48.941c1.427,0,2.279,0.46,2.279,1.23
				V560.774z M1110.75,559.274h50.5V536.82c-0.169-0.042-0.437-0.084-0.779-0.084h-48.941c-0.343,0-0.61,0.042-0.779,0.084V559.274z
				"/>
		</g>
		<g>
			<path class="st9" d="M1165,560.986h-58c-0.553,0-1-0.447-1-1s0.447-1,1-1h58c0.553,0,1,0.447,1,1S1165.553,560.986,1165,560.986z
				"/>
		</g>
		<g>
			<rect x="1110" y="546.544" class="st9" width="52" height="1.5"/>
		</g>
		<g>
			<rect x="1135.25" y="546.986" class="st9" width="1.5" height="13"/>
		</g>
	</g>
	<g>
		<path class="st0" d="M1177.257,454.129l8,4.444c0.333,0.185,0.743-0.056,0.743-0.437v-26.65c0-0.276-0.224-0.5-0.5-0.5h-8
			c-0.276,0-0.5,0.224-0.5,0.5v22.206C1177,453.874,1177.098,454.041,1177.257,454.129z"/>
		<path class="st9" d="M1185.501,459.388c-0.209,0-0.417-0.053-0.608-0.159l-8-4.444c-0.396-0.22-0.643-0.639-0.643-1.092v-22.206
			c0-0.689,0.561-1.25,1.25-1.25h8c0.689,0,1.25,0.561,1.25,1.25v26.65c0,0.447-0.23,0.85-0.616,1.077
			C1185.937,459.33,1185.719,459.388,1185.501,459.388z M1177.75,453.545l7.5,4.167v-25.976h-7.5V453.545z M1177.621,453.474
			L1177.621,453.474L1177.621,453.474L1177.621,453.474z"/>
	</g>
</g>
<g>
	<g>
		<g>
			<path class="st6" d="M232,606.924c-1.806-4.076-4-5-4.631-5.351c-0.387-0.216-0.319-0.853,0.016-1.144
				C259,572.924,276,606.924,272.556,616.864c-0.029,0.083-0.107,0.136-0.195,0.136h-74.556
				C203,584.924,229.342,602.371,228,601.924"/>
			<path class="st9" d="M272.361,617.75h-75.437l0.141-0.87c1.882-11.624,6.694-18.268,14.302-19.745
				c5.972-1.156,12.152,1.317,15.269,3.02c0.073-0.108,0.159-0.207,0.257-0.292c7.428-6.461,21.86-15.973,35.046-7.064
				c4.165,2.813,7.65,7.188,9.814,12.32c1.919,4.548,2.498,9.143,1.51,11.991C273.135,617.491,272.771,617.75,272.361,617.75z
				 M271.848,616.618c0,0.001-0.001,0.003-0.001,0.004C271.847,616.621,271.847,616.619,271.848,616.618z M198.694,616.25h73.267
				c0.7-2.545,0.106-6.53-1.589-10.549c-2.053-4.867-5.346-9.008-9.272-11.66c-6.47-4.37-17.471-6.717-33.155,6.895
				c0.264,0.175,0.463,0.322,0.591,0.433c1.045,0.654,2.729,2.045,4.149,5.252c0.168,0.379-0.003,0.821-0.382,0.989
				c-0.379,0.167-0.822-0.003-0.989-0.382c-1.286-2.903-2.767-4.092-3.648-4.632c-0.037-0.019-0.071-0.039-0.103-0.062
				c-0.152-0.089-0.283-0.158-0.389-0.214l-0.17-0.092c-0.182-0.102-0.331-0.244-0.44-0.417c-2.659-1.541-10.236-5.003-16.796-2.693
				C204.096,601.113,200.373,606.875,198.694,616.25z"/>
		</g>
		<g>
			<path class="st6" d="M262,603.924c0,0-2.806-8.076-13-8"/>
			<path class="st9" d="M262,604.424c-0.207,0-0.4-0.129-0.472-0.335c-0.111-0.316-2.853-7.733-12.524-7.665
				c-0.001,0-0.003,0-0.004,0c-0.274,0-0.498-0.222-0.5-0.496c-0.002-0.276,0.22-0.502,0.496-0.504c0.048,0,0.097-0.001,0.146-0.001
				c10.315,0,13.302,8.253,13.331,8.337c0.091,0.261-0.047,0.545-0.308,0.636C262.11,604.414,262.055,604.424,262,604.424z"/>
		</g>
	</g>
	<g>
		<line class="st6" x1="274" y1="617.336" x2="196" y2="617.636"/>
		<rect x="196" y="615.886" transform="matrix(1 -0.004 0.004 1 -2.4485 0.9374)" class="st6" width="78.001" height="3.199"/>
	</g>
</g>
<g>
	<g>
		<g>
			<path class="st6" d="M1058,606.924c1.806-4.076,4-5,4.631-5.351c0.387-0.216,0.319-0.853-0.016-1.144
				c-31.615-27.505-48.615,6.495-45.171,16.435c0.029,0.083,0.107,0.136,0.195,0.136h74.556
				c-5.194-32.076-31.536-14.629-30.194-15.076"/>
			<path class="st14" d="M1093.075,617.75h-75.437c-0.405,0-0.769-0.256-0.902-0.636c-0.988-2.854-0.41-7.448,1.509-11.996
				c2.165-5.132,5.65-9.507,9.815-12.32c13.187-8.907,27.618,0.602,35.047,7.065c0.097,0.084,0.183,0.183,0.256,0.291
				c3.117-1.703,9.297-4.177,15.27-3.02c7.607,1.478,12.42,8.121,14.302,19.745L1093.075,617.75z M1018.038,616.25h73.268
				c-1.679-9.375-5.401-15.137-11.073-17.133c-6.556-2.31-14.137,1.152-16.796,2.693c-0.109,0.173-0.259,0.315-0.44,0.417
				l-0.171,0.092c-0.104,0.056-0.235,0.125-0.388,0.214c-0.032,0.023-0.067,0.044-0.104,0.062c-0.881,0.54-2.362,1.729-3.648,4.632
				c-0.168,0.379-0.612,0.55-0.989,0.382c-0.379-0.168-0.55-0.61-0.382-0.989c1.421-3.207,3.104-4.598,4.149-5.252
				c0.121-0.104,0.309-0.244,0.555-0.409c-15.677-13.629-26.657-11.284-33.119-6.918c-3.926,2.652-7.219,6.793-9.272,11.66
				C1017.931,609.722,1017.338,613.708,1018.038,616.25z"/>
		</g>
		<g>
			<path class="st6" d="M1028,603.924c0,0,2.806-8.076,13-8"/>
			<path class="st14" d="M1028,604.424c-0.055,0-0.11-0.01-0.165-0.028c-0.26-0.091-0.397-0.375-0.308-0.636
				c0.029-0.084,3.018-8.337,13.331-8.337c0.049,0,0.097,0.001,0.146,0.001c0.276,0.002,0.498,0.228,0.496,0.504
				c-0.002,0.274-0.226,0.496-0.5,0.496c-0.053-0.002-0.097-0.001-0.145-0.001c-9.583,0-12.273,7.352-12.384,7.666
				C1028.399,604.295,1028.206,604.424,1028,604.424z"/>
		</g>
	</g>
	<g>
		<line class="st6" x1="1016" y1="617.336" x2="1094" y2="617.636"/>
		
			<rect x="1053.15" y="578.486" transform="matrix(0.0038 -1 1 0.0038 433.4637 1670.1046)" class="st6" width="3.699" height="78.001"/>
	</g>
</g>
<g>
	<g>
		<g>
			<path class="st6" d="M1443,606.924c-1.806-4.076-4-5-4.631-5.351c-0.387-0.216-0.319-0.853,0.016-1.144
				c31.615-27.505,48.615,6.495,45.171,16.435c-0.029,0.083-0.107,0.136-0.195,0.136h-74.556
				c5.194-32.076,31.536-14.629,30.194-15.076"/>
			<path class="st15" d="M1483.361,617.75h-75.437l0.141-0.87c1.882-11.624,6.694-18.268,14.302-19.745
				c5.975-1.157,12.153,1.316,15.27,3.02c0.073-0.108,0.158-0.207,0.255-0.291c7.43-6.463,21.861-15.976,35.048-7.065
				c4.165,2.813,7.65,7.188,9.815,12.32c1.919,4.548,2.497,9.143,1.511,11.991C1484.13,617.494,1483.767,617.75,1483.361,617.75z
				 M1409.694,616.25h73.269c0.7-2.538,0.106-6.526-1.59-10.549c-2.054-4.867-5.347-9.008-9.272-11.66
				c-6.47-4.371-17.469-6.717-33.155,6.895c0.265,0.175,0.464,0.322,0.591,0.433c1.045,0.654,2.729,2.045,4.149,5.252
				c0.168,0.379-0.003,0.821-0.382,0.989c-0.378,0.168-0.821-0.003-0.989-0.382c-1.286-2.903-2.768-4.092-3.648-4.632
				c-0.036-0.019-0.071-0.039-0.104-0.062c-0.152-0.089-0.283-0.158-0.388-0.214l-0.171-0.092c-0.182-0.102-0.331-0.244-0.44-0.417
				c-2.66-1.541-10.238-4.998-16.796-2.693C1415.096,601.113,1411.373,606.875,1409.694,616.25z"/>
		</g>
		<g>
			<path class="st6" d="M1473,603.924c0,0-2.806-8.076-13-8"/>
			<path class="st15" d="M1473,604.424c-0.206,0-0.399-0.129-0.472-0.335c-0.11-0.314-2.802-7.666-12.384-7.666
				c-0.048,0-0.117-0.005-0.145,0.001c-0.274,0-0.498-0.222-0.5-0.496c-0.002-0.276,0.22-0.502,0.496-0.504
				c0.049,0,0.098-0.001,0.146-0.001c10.315,0,13.302,8.253,13.331,8.337c0.09,0.261-0.048,0.545-0.308,0.636
				C1473.11,604.414,1473.055,604.424,1473,604.424z"/>
		</g>
	</g>
	<g>
		<line class="st6" x1="1485" y1="617.336" x2="1407" y2="617.636"/>
		<rect x="1407" y="615.636" transform="matrix(1 -0.0037 0.0037 1 -2.2723 5.3484)" class="st6" width="78.001" height="3.699"/>
	</g>
</g>
<g>
	<g>
		<g>
			<path class="st6" d="M438,606.924c-1.806-4.076-4-5-4.631-5.351c-0.387-0.216-0.319-0.853,0.016-1.144
				C465,572.924,482,606.924,478.556,616.864c-0.029,0.083-0.107,0.136-0.195,0.136h-74.556
				C409,584.924,435.342,602.371,434,601.924"/>
			<path class="st9" d="M478.361,617.75h-75.437l0.141-0.87c1.882-11.624,6.694-18.268,14.302-19.745
				c5.973-1.156,12.152,1.317,15.269,3.02c0.073-0.108,0.159-0.207,0.257-0.292c7.428-6.461,21.859-15.973,35.046-7.064
				c4.165,2.813,7.65,7.188,9.814,12.32c1.919,4.548,2.498,9.143,1.51,11.991C479.135,617.491,478.771,617.75,478.361,617.75z
				 M477.848,616.618c0,0.001-0.001,0.003-0.001,0.004C477.847,616.621,477.847,616.619,477.848,616.618z M404.694,616.25h73.267
				c0.7-2.545,0.106-6.53-1.589-10.549c-2.053-4.867-5.346-9.008-9.272-11.66c-6.47-4.37-17.471-6.717-33.155,6.895
				c0.264,0.175,0.463,0.322,0.591,0.433c1.045,0.654,2.729,2.045,4.149,5.252c0.168,0.379-0.003,0.821-0.382,0.989
				c-0.378,0.167-0.821-0.003-0.989-0.382c-1.286-2.903-2.767-4.092-3.648-4.632c-0.037-0.019-0.071-0.039-0.103-0.062
				c-0.152-0.089-0.283-0.158-0.389-0.214l-0.17-0.092c-0.182-0.102-0.331-0.244-0.44-0.417c-2.659-1.541-10.237-5.003-16.796-2.693
				C410.096,601.113,406.373,606.875,404.694,616.25z"/>
		</g>
		<g>
			<path class="st6" d="M468,603.924c0,0-2.806-8.076-13-8"/>
			<path class="st9" d="M468,604.424c-0.207,0-0.4-0.129-0.472-0.335c-0.111-0.316-2.835-7.733-12.524-7.665
				c-0.001,0-0.003,0-0.004,0c-0.274,0-0.498-0.222-0.5-0.496c-0.002-0.276,0.22-0.502,0.496-0.504c0.048,0,0.097-0.001,0.146-0.001
				c10.315,0,13.302,8.253,13.331,8.337c0.091,0.261-0.047,0.545-0.308,0.636C468.11,604.414,468.055,604.424,468,604.424z"/>
		</g>
	</g>
	<g>
		<line class="st6" x1="480" y1="617.336" x2="402" y2="617.636"/>
		<rect x="402" y="615.886" transform="matrix(1 -0.004 0.004 1 -2.4468 1.7548)" class="st6" width="78.001" height="3.199"/>
	</g>
</g>
</svg>
