<?xml version="1.0" encoding="utf-8"?>
<!-- Generator: Adobe Illustrator 27.4.1, SVG Export Plug-In . SVG Version: 6.00 Build 0)  -->
<svg version="1.1" id="Lager_1" xmlns="http://www.w3.org/2000/svg" xmlns:xlink="http://www.w3.org/1999/xlink" x="0px" y="0px"
	 viewBox="0 0 140.826 31.25" style="enable-background:new 0 0 140.826 31.25;" xml:space="preserve">
<style type="text/css">
	.st0{fill:#FAFCFF;}
</style>
<path class="st0" d="M47.674,25.248h4.543V14.295h12.361v10.953h4.525V0h-4.525v10.498H52.217V0h-4.543V25.248z M81.411,25.615
	c12.022,0.68,11.977-19.959-0.018-19.299C69.433,5.684,69.405,26.303,81.411,25.615z M81.429,22.098
	C75.2,22.178,75.188,9.817,81.393,9.851C87.597,9.775,87.624,22.153,81.429,22.098z M93.261,25.248h4.367
	c0.642-3.671-2.646-18.046,5.37-14.837c2.969,1.162,1.023,12.522,1.55,14.837h4.261c0.721-3.259-2.372-15.511,3.556-15.257
	c5.662-0.564,2.628,12.258,3.347,15.257h4.384c-0.275-2.505,0.709-13.941-0.775-15.975c-2.202-4.306-9.496-3.766-11.146,0.787
	h-0.088c-1.149-4.854-8.775-4.941-10.353-0.385h-0.106V6.701h-4.367V25.248z M140.826,6.865c0,0-10.079,23.435-10.079,23.435
	c-0.414,1.594-3.667,0.751-4.797,0.95l3.462-7.382L121.93,6.865c1.032,0.226,4.771-0.641,5.174,0.824
	c0.534,1.424,4.35,10.156,4.526,11.485c0.333-1.256,3.876-10.076,4.4-11.484C136.415,6.259,139.84,7.063,140.826,6.865z"/>
<path class="st0" d="M8.395,23.481h6.057v-2.384c0-1.264,0.525-2.414,1.369-3.246c0.844-0.832,2.011-1.349,3.293-1.349
	s2.449,0.517,3.293,1.349c0.844,0.832,1.369,1.982,1.369,3.246v2.384h6.057v-7.063c0-0.487,0.402-0.883,0.896-0.883h2.838
	c0.788,0,1.505-0.319,2.026-0.831c0.52-0.513,0.843-1.22,0.843-1.997c0-0.777-0.323-1.483-0.843-1.997
	c-0.52-0.513-1.238-0.831-2.026-0.831h-2.838c-0.494,0-0.896-0.396-0.896-0.883V1.933h-6.057v2.384c0,1.264-0.525,2.414-1.369,3.246
	c-0.844,0.832-2.011,1.35-3.293,1.35s-2.449-0.517-3.293-1.35c-0.844-0.832-1.369-1.982-1.369-3.246V1.933H8.395v7.063
	c0,0.487-0.402,0.883-0.896,0.883H4.661c-0.788,0-1.505,0.319-2.026,0.831c-0.52,0.513-0.843,1.22-0.843,1.997
	c0,0.777,0.323,1.484,0.843,1.997c0.52,0.513,1.238,0.831,2.026,0.831h2.838c0.494,0,0.896,0.396,0.896,0.883V23.481z
	 M15.347,25.247H7.499c-0.494,0-0.896-0.396-0.896-0.883v-7.063H4.661c-1.282,0-2.449-0.517-3.292-1.35
	C0.525,15.12,0,13.97,0,12.706c0-1.264,0.525-2.414,1.369-3.246c0.844-0.832,2.01-1.35,3.292-1.35h1.942V1.047
	c0-0.487,0.402-0.883,0.896-0.883h7.848c0.494,0,0.896,0.396,0.896,0.883v3.267c0,0.777,0.323,1.484,0.843,1.997
	c0.52,0.513,1.238,0.831,2.026,0.831c0.788,0,1.505-0.319,2.026-0.831c0.52-0.513,0.843-1.22,0.843-1.997V1.047
	c0-0.487,0.402-0.883,0.896-0.883h7.849c0.494,0,0.896,0.396,0.896,0.883V8.11h1.942c1.282,0,2.449,0.517,3.292,1.35
	c0.845,0.832,1.369,1.982,1.369,3.246c0,1.264-0.525,2.414-1.369,3.246c-0.844,0.832-2.009,1.35-3.292,1.35h-1.942v7.063
	c0,0.487-0.402,0.883-0.896,0.883h-7.849c-0.494,0-0.896-0.396-0.896-0.883v-3.267c0-0.777-0.323-1.483-0.843-1.997
	c-0.52-0.513-1.238-0.831-2.026-0.831s-1.505,0.319-2.026,0.831c-0.52,0.513-0.843,1.22-0.843,1.997v3.267
	C16.243,24.851,15.842,25.247,15.347,25.247z"/>
</svg>
