<?xml version="1.0" encoding="utf-8"?>
<!-- Generator: Adobe Illustrator 27.4.1, SVG Export Plug-In . SVG Version: 6.00 Build 0)  -->
<svg version="1.1" id="Lager_1" xmlns="http://www.w3.org/2000/svg" xmlns:xlink="http://www.w3.org/1999/xlink" x="0px" y="0px"
	 viewBox="0 0 401.5 253.437" style="enable-background:new 0 0 401.5 253.437;" xml:space="preserve">
<style type="text/css">
	.st0{clip-path:url(#SVGID_00000146460119022905423870000015760713908312145085_);fill:#F5F7FA;}
	.st1{clip-path:url(#SVGID_00000146460119022905423870000015760713908312145085_);fill:#F7F5FA;}
	.st2{fill:#E6EEFA;}
	.st3{fill:#505459;}
	.st4{fill:#FFFFFF;}
	.st5{fill:#E9F1FC;}
	.st6{fill:#505259;}
	.st7{fill:#676C73;}
</style>
<g>
	<g>
		<defs>
			<path id="SVGID_1_" d="M400.749,99.995h-31.576c-3.314,0-6,2.686-6,6v42.319c0,3.314-2.686,6-6,6h-48.667c-3.314,0-6-2.686-6-6
				V40.566c0-3.314-2.686-6-6-6h-23.466c-3.314,0-6-2.686-6-6V6c0-3.314-2.686-6-6-6h-31.867c-3.314,0-6,2.686-6,6v50.96
				c0,3.314-2.686,6-6,6h-33.733c-3.314,0-6,2.686-6,6v48.491c0,3.314-2.686,6-6,6h-12.267c-3.314,0-6-2.686-6-6V82.54
				c0-3.314-2.686-6-6-6h-25.333c-3.314,0-6,2.686-6,6v111.451c0,3.314-2.686,6-6,6H66.772c-3.314,0-6,2.686-6,6v47.084H400.75"/>
		</defs>
		<clipPath id="SVGID_00000070109817145273401860000010990099464680405679_">
			<use xlink:href="#SVGID_1_"  style="overflow:visible;"/>
		</clipPath>
		<polygon style="clip-path:url(#SVGID_00000070109817145273401860000010990099464680405679_);fill:#F5F7FA;" points="
			60.772,170.384 61.844,253.075 60.772,253.075 		"/>
		<polygon style="clip-path:url(#SVGID_00000070109817145273401860000010990099464680405679_);fill:#F5F7FA;" points="60.772,0.139 
			71.478,0 228.544,0 231.823,253.075 61.844,253.075 60.772,170.384 		"/>
		<polygon style="clip-path:url(#SVGID_00000070109817145273401860000010990099464680405679_);fill:#F7F5FA;" points="398.523,0 
			400.75,171.911 400.75,253.075 231.823,253.075 228.544,0 		"/>
		<polygon style="clip-path:url(#SVGID_00000070109817145273401860000010990099464680405679_);fill:#F7F5FA;" points="
			400.75,171.911 398.523,0 400.75,0 		"/>
	</g>
</g>
<g>
	<g>
		<rect x="331.908" y="45.149" class="st2" width="37" height="207"/>
		<path class="st3" d="M369.657,252.898h-38.5v-208.5h38.5V252.898z M332.657,251.398h35.5v-205.5h-35.5V251.398z"/>
	</g>
	<g>
		<rect x="201.908" y="45.149" class="st4" width="130" height="207"/>
		<path class="st3" d="M332.657,252.898h-131.5v-208.5h131.5V252.898z M202.657,251.398h128.5v-205.5h-128.5V251.398z"/>
	</g>
	<g>
		<path class="st4" d="M201.2,44.841c-1.99-0.979-6.328-4.746-0.07-7.373c0.491-0.206,1.022-0.32,1.554-0.32l131.87,0
			c1.241,0,2.455,0.63,3.01,1.75c0.521,1.051,0.604,2.632-0.856,4.891c-0.547,0.847-1.491,1.359-2.494,1.359H202.512
			C202.056,45.149,201.609,45.043,201.2,44.841z"/>
		<path class="st3" d="M334.214,45.898H202.512c-0.572,0-1.125-0.129-1.643-0.384h0c-1.54-0.757-3.807-2.662-3.743-4.806
			c0.048-1.595,1.297-2.917,3.713-3.932c0.59-0.248,1.228-0.379,1.843-0.379h131.871c1.584,0,3.029,0.851,3.682,2.167
			c0.543,1.095,0.827,2.961-0.897,5.631C336.649,45.263,335.481,45.898,334.214,45.898z M201.53,44.168
			c0.311,0.153,0.641,0.23,0.981,0.23h131.702c0.757,0,1.453-0.379,1.864-1.016c1.077-1.668,1.352-3.065,0.813-4.151
			c-0.401-0.81-1.319-1.333-2.338-1.333H202.683c-0.418,0-0.854,0.091-1.263,0.262c-1.255,0.527-2.759,1.404-2.794,2.594
			C198.585,42.089,200.335,43.581,201.53,44.168L201.53,44.168z"/>
	</g>
	<g>
		<path class="st4" d="M334.933,37.149h35.79c0.789,0,1.58,0.194,2.224,0.639c1.966,1.361,4.016,6.361-4.185,7.361h-34.854
			C333.908,45.149,341.908,41.162,334.933,37.149z"/>
		<path class="st3" d="M333.907,45.898h-3.173l2.838-1.421c0.947-0.475,3.416-2.071,3.464-3.742
			c0.029-0.986-0.805-1.975-2.478-2.938l-2.433-1.4h38.597c1.004,0,1.92,0.267,2.65,0.772c1.312,0.908,2.451,2.904,1.979,4.814
			c-0.362,1.465-1.783,3.333-6.5,3.908L333.907,45.898z M336.374,44.398h32.388c2.927-0.362,4.783-1.349,5.135-2.773
			c0.326-1.321-0.629-2.703-1.377-3.221c-0.479-0.331-1.1-0.506-1.797-0.506h-33.511c0.91,0.895,1.354,1.86,1.324,2.884
			C338.491,42.258,337.431,43.511,336.374,44.398z"/>
	</g>
	<g>
		<path class="st4" d="M201.152,138.841c-1.962-0.979-6.238-4.746-0.069-7.373c0.484-0.206,1.007-0.32,1.531-0.32h129.987
			c1.223,0,2.42,0.63,2.967,1.75c0.513,1.051,0.595,2.632-0.843,4.891c-0.54,0.847-1.47,1.359-2.458,1.359H202.446
			C201.996,139.149,201.556,139.043,201.152,138.841z"/>
		<path class="st3" d="M332.267,139.898H202.445c-0.566,0-1.114-0.13-1.627-0.385l-0.001-0.001c-1.52-0.759-3.756-2.665-3.691-4.807
			c0.048-1.592,1.281-2.913,3.663-3.928c0.584-0.248,1.216-0.38,1.825-0.38h129.987c1.567,0,2.996,0.853,3.641,2.171
			c0.534,1.092,0.814,2.955-0.885,5.623C334.678,139.261,333.522,139.898,332.267,139.898z M201.486,138.17
			c0.304,0.151,0.627,0.229,0.959,0.229h129.821c0.74,0,1.423-0.378,1.825-1.011c1.064-1.673,1.335-3.072,0.803-4.16
			c-0.395-0.808-1.295-1.329-2.293-1.329H202.614c-0.409,0-0.838,0.09-1.237,0.261c-1.235,0.525-2.715,1.402-2.751,2.593
			C198.585,136.089,200.308,137.582,201.486,138.17L201.486,138.17z"/>
	</g>
	<g>
		<path class="st4" d="M332.998,131.149h38.079c0.839,0,1.681,0.194,2.366,0.639c2.092,1.361,2.936,7.361-4.452,7.361h-37.083
			C331.908,139.149,339.796,136.162,332.998,131.149z"/>
		<path class="st3" d="M368.991,139.898h-41.152l3.802-1.451c0.86-0.328,3.139-1.524,3.353-3.098
			c0.185-1.351-1.226-2.701-2.44-3.598l-1.835-1.354h40.359c1.05,0,2.01,0.263,2.775,0.761c1.263,0.821,2.238,3.013,1.613,5.121
			C375.065,137.632,373.691,139.898,368.991,139.898z M334.668,138.398h34.323c2.762,0,4.55-0.903,5.037-2.545
			c0.408-1.379-0.195-2.918-0.994-3.437c-0.521-0.339-1.198-0.519-1.957-0.519H335c1.149,1.216,1.646,2.441,1.479,3.658
			C336.314,136.75,335.526,137.699,334.668,138.398z"/>
	</g>
	<g>
		<path class="st4" d="M203.783,37.149l-6.173,0c-1.354,0-2.679-0.656-3.344-1.845c-0.452-0.809-0.592-1.815,0.279-2.878
			c0.698-0.852,1.788-1.277,2.884-1.277h141.293c0,0,4.918,3,0,6L203.783,37.149z"/>
		<path class="st3" d="M338.933,37.898H197.61c-1.698,0-3.23-0.854-4-2.229c-0.705-1.261-0.579-2.582,0.354-3.72
			c0.808-0.986,2.071-1.552,3.464-1.552h141.504l0.18,0.11c0.104,0.063,2.545,1.578,2.545,3.751c0,1.312-0.856,2.499-2.545,3.529
			L338.933,37.898z M197.429,31.898c-0.942,0-1.781,0.366-2.304,1.003c-0.545,0.665-0.61,1.312-0.205,2.036
			c0.504,0.901,1.535,1.461,2.69,1.461h140.896c1.096-0.704,1.65-1.423,1.65-2.139c0-1.083-1.217-2.045-1.664-2.361H197.429z"/>
	</g>
	<g>
		<path class="st4" d="M338.908,31.149h35.359c1.329,0,2.63,0.655,3.286,1.841c0.448,0.809,0.587,1.818-0.273,2.882
			c-0.689,0.852-1.761,1.277-2.84,1.277h-35.532C338.908,37.149,342.786,34.149,338.908,31.149z"/>
		<path class="st3" d="M374.439,37.898h-37.728l1.736-1.343c0.013-0.01,1.438-1.142,1.433-2.524
			c-0.002-0.786-0.484-1.556-1.433-2.289l-1.736-1.343h37.555c1.672,0,3.182,0.854,3.941,2.228c0.697,1.258,0.574,2.579-0.346,3.717
			C377.063,37.332,375.816,37.898,374.439,37.898z M340.592,36.398h33.848c0.922,0,1.744-0.364,2.257-0.998
			c0.54-0.668,0.603-1.319,0.199-2.048c-0.496-0.897-1.503-1.454-2.629-1.454H340.68c0.467,0.672,0.701,1.387,0.701,2.139
			C341.381,34.962,341.014,35.773,340.592,36.398z"/>
	</g>
	<g>
		<g>
			<path class="st2" d="M255.908,78.149v-22.5c0-0.276,0.224-0.5,0.5-0.5h20c0.276,0,0.5,0.224,0.5,0.5v22.5H255.908z"/>
			<path class="st3" d="M277.657,78.898h-22.5v-23.25c0-0.689,0.561-1.25,1.25-1.25h20c0.689,0,1.25,0.561,1.25,1.25V78.898z
				 M256.657,77.398h19.5v-21.5h-19.5V77.398z"/>
		</g>
		<g>
			<path class="st3" d="M276.483,83.898h-19.94c-0.766,0-1.515-0.172-2.167-0.497c-1.89-0.939-2.248-2.069-2.216-2.852
				c0.054-1.312,1.212-2.352,2.337-2.8l0,0c0.585-0.233,1.202-0.352,1.835-0.352h19.94c0.764,0,1.512,0.172,2.165,0.496
				c1.892,0.94,2.25,2.07,2.218,2.853c-0.054,1.312-1.212,2.352-2.337,2.8C277.732,83.78,277.115,83.898,276.483,83.898z
				 M255.052,79.143c-0.666,0.266-1.369,0.888-1.394,1.469c-0.026,0.646,0.857,1.185,1.387,1.447c0.446,0.223,0.964,0.34,1.498,0.34
				h19.94c0.441,0,0.872-0.082,1.28-0.245c0.666-0.265,1.369-0.887,1.394-1.468c0.026-0.646-0.858-1.185-1.388-1.447
				c-0.446-0.223-0.964-0.34-1.497-0.34h-19.94C255.89,78.898,255.459,78.98,255.052,79.143L255.052,79.143z"/>
		</g>
		<g>
			<rect x="255.907" y="71.398" class="st3" width="21" height="1.5"/>
		</g>
	</g>
	<g>
		<g>
			<path class="st2" d="M294.908,118.149v-22.5c0-0.276,0.224-0.5,0.5-0.5h20c0.276,0,0.5,0.224,0.5,0.5v22.5H294.908z"/>
			<path class="st3" d="M316.657,118.898h-22.5v-23.25c0-0.689,0.561-1.25,1.25-1.25h20c0.689,0,1.25,0.561,1.25,1.25V118.898z
				 M295.657,117.398h19.5v-21.5h-19.5V117.398z"/>
		</g>
		<g>
			<path class="st3" d="M315.483,123.898h-19.94c-0.766,0-1.515-0.172-2.167-0.497c-1.89-0.939-2.248-2.069-2.216-2.852
				c0.054-1.312,1.212-2.352,2.337-2.8l0,0c0.585-0.233,1.202-0.352,1.835-0.352h19.94c0.764,0,1.512,0.172,2.165,0.496
				c1.892,0.94,2.25,2.07,2.218,2.853c-0.054,1.312-1.212,2.352-2.337,2.8C316.732,123.78,316.115,123.898,315.483,123.898z
				 M294.052,119.143c-0.666,0.266-1.369,0.888-1.394,1.469c-0.026,0.646,0.857,1.185,1.387,1.447
				c0.446,0.223,0.964,0.34,1.498,0.34h19.94c0.441,0,0.872-0.082,1.28-0.245c0.666-0.265,1.369-0.887,1.394-1.468
				c0.026-0.646-0.858-1.185-1.388-1.447c-0.446-0.223-0.964-0.34-1.497-0.34h-19.94C294.89,118.898,294.459,118.98,294.052,119.143
				L294.052,119.143z"/>
		</g>
		<g>
			<rect x="294.907" y="111.398" class="st3" width="21" height="1.5"/>
		</g>
	</g>
	<g>
		<g>
			<path class="st2" d="M215.908,118.149v-22.5c0-0.276,0.224-0.5,0.5-0.5h20c0.276,0,0.5,0.224,0.5,0.5v22.5H215.908z"/>
			<path class="st3" d="M237.657,118.898h-22.5v-23.25c0-0.689,0.561-1.25,1.25-1.25h20c0.689,0,1.25,0.561,1.25,1.25V118.898z
				 M216.657,117.398h19.5v-21.5h-19.5V117.398z"/>
		</g>
		<g>
			<path class="st3" d="M236.483,123.898h-19.94c-0.766,0-1.515-0.172-2.167-0.497c-1.89-0.939-2.248-2.069-2.216-2.852
				c0.054-1.312,1.212-2.352,2.337-2.8l0,0c0.585-0.233,1.202-0.352,1.835-0.352h19.94c0.764,0,1.512,0.172,2.165,0.496
				c1.892,0.94,2.25,2.07,2.218,2.853c-0.054,1.312-1.212,2.352-2.337,2.8C237.732,123.78,237.115,123.898,236.483,123.898z
				 M215.052,119.143c-0.666,0.266-1.369,0.888-1.394,1.469c-0.026,0.646,0.857,1.185,1.387,1.447
				c0.446,0.223,0.964,0.34,1.498,0.34h19.94c0.441,0,0.872-0.082,1.28-0.245c0.666-0.265,1.369-0.887,1.394-1.468
				c0.026-0.646-0.858-1.185-1.388-1.447c-0.446-0.223-0.964-0.34-1.497-0.34h-19.94C215.89,118.898,215.459,118.98,215.052,119.143
				L215.052,119.143z"/>
		</g>
		<g>
			<rect x="215.907" y="111.398" class="st3" width="21" height="1.5"/>
		</g>
	</g>
	<g>
		<g>
			<path class="st2" d="M215.908,78.149v-22.5c0-0.276,0.224-0.5,0.5-0.5h20c0.276,0,0.5,0.224,0.5,0.5v22.5H215.908z"/>
			<path class="st3" d="M237.657,78.898h-22.5v-23.25c0-0.689,0.561-1.25,1.25-1.25h20c0.689,0,1.25,0.561,1.25,1.25V78.898z
				 M216.657,77.398h19.5v-21.5h-19.5V77.398z"/>
		</g>
		<g>
			<path class="st3" d="M236.483,83.898h-19.94c-0.766,0-1.515-0.172-2.167-0.497c-1.89-0.939-2.248-2.069-2.216-2.852
				c0.054-1.312,1.212-2.352,2.337-2.8l0,0c0.585-0.233,1.202-0.352,1.835-0.352h19.94c0.764,0,1.512,0.172,2.165,0.496
				c1.892,0.94,2.25,2.07,2.218,2.853c-0.054,1.312-1.212,2.352-2.337,2.8C237.732,83.78,237.115,83.898,236.483,83.898z
				 M215.052,79.143c-0.666,0.266-1.369,0.888-1.394,1.469c-0.026,0.646,0.857,1.185,1.387,1.447c0.446,0.223,0.964,0.34,1.498,0.34
				h19.94c0.441,0,0.872-0.082,1.28-0.245c0.666-0.265,1.369-0.887,1.394-1.468c0.026-0.646-0.858-1.185-1.388-1.447
				c-0.446-0.223-0.964-0.34-1.497-0.34h-19.94C215.89,78.898,215.459,78.98,215.052,79.143L215.052,79.143z"/>
		</g>
		<g>
			<rect x="215.907" y="71.398" class="st3" width="21" height="1.5"/>
		</g>
	</g>
	<g>
		<g>
			<path class="st2" d="M215.908,171.149v-22.5c0-0.276,0.224-0.5,0.5-0.5h20c0.276,0,0.5,0.224,0.5,0.5v22.5H215.908z"/>
			<path class="st3" d="M237.657,171.898h-22.5v-23.25c0-0.689,0.561-1.25,1.25-1.25h20c0.689,0,1.25,0.561,1.25,1.25V171.898z
				 M216.657,170.398h19.5v-21.5h-19.5V170.398z"/>
		</g>
		<g>
			<path class="st3" d="M236.483,176.898h-19.94c-0.766,0-1.515-0.172-2.167-0.497c-1.89-0.939-2.248-2.069-2.216-2.852
				c0.054-1.312,1.212-2.352,2.337-2.8l0,0c0.585-0.233,1.202-0.352,1.835-0.352h19.94c0.764,0,1.512,0.172,2.165,0.496
				c1.892,0.94,2.25,2.07,2.218,2.853c-0.054,1.312-1.212,2.352-2.337,2.8C237.732,176.78,237.115,176.898,236.483,176.898z
				 M215.052,172.143c-0.666,0.266-1.369,0.888-1.394,1.469c-0.026,0.646,0.857,1.185,1.387,1.447
				c0.446,0.223,0.964,0.34,1.498,0.34h19.94c0.441,0,0.872-0.082,1.28-0.245c0.666-0.265,1.369-0.887,1.394-1.468
				c0.026-0.646-0.858-1.185-1.388-1.447c-0.446-0.223-0.964-0.34-1.497-0.34h-19.94C215.89,171.898,215.459,171.98,215.052,172.143
				L215.052,172.143z"/>
		</g>
		<g>
			<rect x="215.907" y="164.398" class="st3" width="21" height="1.5"/>
		</g>
	</g>
	<g>
		<g>
			<path class="st2" d="M255.908,171.149v-22.5c0-0.276,0.224-0.5,0.5-0.5h20c0.276,0,0.5,0.224,0.5,0.5v22.5H255.908z"/>
			<path class="st3" d="M277.657,171.898h-22.5v-23.25c0-0.689,0.561-1.25,1.25-1.25h20c0.689,0,1.25,0.561,1.25,1.25V171.898z
				 M256.657,170.398h19.5v-21.5h-19.5V170.398z"/>
		</g>
		<g>
			<path class="st3" d="M276.483,176.898h-19.94c-0.766,0-1.515-0.172-2.167-0.497c-1.89-0.939-2.248-2.069-2.216-2.852
				c0.054-1.312,1.212-2.352,2.337-2.8l0,0c0.585-0.233,1.202-0.352,1.835-0.352h19.94c0.764,0,1.512,0.172,2.165,0.496
				c1.892,0.94,2.25,2.07,2.218,2.853c-0.054,1.312-1.212,2.352-2.337,2.8C277.732,176.78,277.115,176.898,276.483,176.898z
				 M255.052,172.143c-0.666,0.266-1.369,0.888-1.394,1.469c-0.026,0.646,0.857,1.185,1.387,1.447
				c0.446,0.223,0.964,0.34,1.498,0.34h19.94c0.441,0,0.872-0.082,1.28-0.245c0.666-0.265,1.369-0.887,1.394-1.468
				c0.026-0.646-0.858-1.185-1.388-1.447c-0.446-0.223-0.964-0.34-1.497-0.34h-19.94C255.89,171.898,255.459,171.98,255.052,172.143
				L255.052,172.143z"/>
		</g>
		<g>
			<rect x="255.907" y="164.398" class="st3" width="21" height="1.5"/>
		</g>
	</g>
	<g>
		<g>
			<path class="st2" d="M216.908,231.149v-22.5c0-0.276,0.224-0.5,0.5-0.5h20c0.276,0,0.5,0.224,0.5,0.5v22.5H216.908z"/>
			<path class="st3" d="M238.657,231.898h-22.5v-23.25c0-0.689,0.561-1.25,1.25-1.25h20c0.689,0,1.25,0.561,1.25,1.25V231.898z
				 M217.657,230.398h19.5v-21.5h-19.5V230.398z"/>
		</g>
		<g>
			<path class="st3" d="M237.483,236.898h-19.94c-0.766,0-1.515-0.172-2.167-0.497c-1.89-0.939-2.248-2.069-2.216-2.852
				c0.054-1.312,1.212-2.352,2.337-2.8l0,0c0.585-0.233,1.202-0.352,1.835-0.352h19.94c0.764,0,1.512,0.172,2.165,0.496
				c1.892,0.94,2.25,2.07,2.218,2.853c-0.054,1.312-1.212,2.352-2.337,2.8C238.732,236.78,238.115,236.898,237.483,236.898z
				 M216.052,232.143c-0.666,0.266-1.369,0.888-1.394,1.469c-0.026,0.646,0.857,1.185,1.387,1.447
				c0.446,0.223,0.964,0.34,1.498,0.34h19.94c0.441,0,0.872-0.082,1.28-0.245c0.666-0.265,1.369-0.887,1.394-1.468
				c0.026-0.646-0.858-1.185-1.388-1.447c-0.446-0.223-0.964-0.34-1.497-0.34h-19.94C216.89,231.898,216.459,231.98,216.052,232.143
				L216.052,232.143z"/>
		</g>
		<g>
			<rect x="216.907" y="224.398" class="st3" width="21" height="1.5"/>
		</g>
	</g>
	<g>
		<g>
			<path class="st2" d="M294.908,171.149v-22.5c0-0.276,0.224-0.5,0.5-0.5h20c0.276,0,0.5,0.224,0.5,0.5v22.5H294.908z"/>
			<path class="st3" d="M316.657,171.898h-22.5v-23.25c0-0.689,0.561-1.25,1.25-1.25h20c0.689,0,1.25,0.561,1.25,1.25V171.898z
				 M295.657,170.398h19.5v-21.5h-19.5V170.398z"/>
		</g>
		<g>
			<path class="st3" d="M315.483,176.898h-19.94c-0.766,0-1.515-0.172-2.167-0.497c-1.89-0.939-2.248-2.069-2.216-2.852
				c0.054-1.312,1.212-2.352,2.337-2.8l0,0c0.585-0.233,1.202-0.352,1.835-0.352h19.94c0.764,0,1.512,0.172,2.165,0.496
				c1.892,0.94,2.25,2.07,2.218,2.853c-0.054,1.312-1.212,2.352-2.337,2.8C316.732,176.78,316.115,176.898,315.483,176.898z
				 M294.052,172.143c-0.666,0.266-1.369,0.888-1.394,1.469c-0.026,0.646,0.857,1.185,1.387,1.447
				c0.446,0.223,0.964,0.34,1.498,0.34h19.94c0.441,0,0.872-0.082,1.28-0.245c0.666-0.265,1.369-0.887,1.394-1.468
				c0.026-0.646-0.858-1.185-1.388-1.447c-0.446-0.223-0.964-0.34-1.497-0.34h-19.94C294.89,171.898,294.459,171.98,294.052,172.143
				L294.052,172.143z"/>
		</g>
		<g>
			<rect x="294.907" y="164.398" class="st3" width="21" height="1.5"/>
		</g>
	</g>
	<g>
		<g>
			<path class="st2" d="M294.908,78.149v-22.5c0-0.276,0.224-0.5,0.5-0.5h20c0.276,0,0.5,0.224,0.5,0.5v22.5H294.908z"/>
			<path class="st3" d="M316.657,78.898h-22.5v-23.25c0-0.689,0.561-1.25,1.25-1.25h20c0.689,0,1.25,0.561,1.25,1.25V78.898z
				 M295.657,77.398h19.5v-21.5h-19.5V77.398z"/>
		</g>
		<g>
			<path class="st3" d="M315.483,83.898h-19.94c-0.766,0-1.515-0.172-2.167-0.497c-1.89-0.939-2.248-2.069-2.216-2.852
				c0.054-1.312,1.212-2.352,2.337-2.8l0,0c0.585-0.233,1.202-0.352,1.835-0.352h19.94c0.764,0,1.512,0.172,2.165,0.496
				c1.892,0.94,2.25,2.07,2.218,2.853c-0.054,1.312-1.212,2.352-2.337,2.8C316.732,83.78,316.115,83.898,315.483,83.898z
				 M294.052,79.143c-0.666,0.266-1.369,0.888-1.394,1.469c-0.026,0.646,0.857,1.185,1.387,1.447c0.446,0.223,0.964,0.34,1.498,0.34
				h19.94c0.441,0,0.872-0.082,1.28-0.245c0.666-0.265,1.369-0.887,1.394-1.468c0.026-0.646-0.858-1.185-1.388-1.447
				c-0.446-0.223-0.964-0.34-1.497-0.34h-19.94C294.89,78.898,294.459,78.98,294.052,79.143L294.052,79.143z"/>
		</g>
		<g>
			<rect x="294.907" y="62.398" class="st3" width="21" height="1.5"/>
		</g>
	</g>
	<g>
		<g>
			<path class="st2" d="M255.908,118.149v-22.5c0-0.276,0.224-0.5,0.5-0.5h20c0.276,0,0.5,0.224,0.5,0.5v22.5H255.908z"/>
			<path class="st3" d="M277.657,118.898h-22.5v-23.25c0-0.689,0.561-1.25,1.25-1.25h20c0.689,0,1.25,0.561,1.25,1.25V118.898z
				 M256.657,117.398h19.5v-21.5h-19.5V117.398z"/>
		</g>
		<g>
			<path class="st3" d="M276.483,123.898h-19.94c-0.766,0-1.515-0.172-2.167-0.497c-1.89-0.939-2.248-2.069-2.216-2.852
				c0.054-1.312,1.212-2.352,2.337-2.8l0,0c0.585-0.233,1.202-0.352,1.835-0.352h19.94c0.764,0,1.512,0.172,2.165,0.496
				c1.892,0.94,2.25,2.07,2.218,2.853c-0.054,1.312-1.212,2.352-2.337,2.8C277.732,123.78,277.115,123.898,276.483,123.898z
				 M255.052,119.143c-0.666,0.266-1.369,0.888-1.394,1.469c-0.026,0.646,0.857,1.185,1.387,1.447
				c0.446,0.223,0.964,0.34,1.498,0.34h19.94c0.441,0,0.872-0.082,1.28-0.245c0.666-0.265,1.369-0.887,1.394-1.468
				c0.026-0.646-0.858-1.185-1.388-1.447c-0.446-0.223-0.964-0.34-1.497-0.34h-19.94C255.89,118.898,255.459,118.98,255.052,119.143
				L255.052,119.143z"/>
		</g>
		<g>
			<rect x="255.907" y="102.398" class="st3" width="21" height="1.5"/>
		</g>
	</g>
	<g>
		<g>
			<path class="st2" d="M294.908,231.149v-22.5c0-0.276,0.224-0.5,0.5-0.5h20c0.276,0,0.5,0.224,0.5,0.5v22.5H294.908z"/>
			<path class="st3" d="M316.657,231.898h-22.5v-23.25c0-0.689,0.561-1.25,1.25-1.25h20c0.689,0,1.25,0.561,1.25,1.25V231.898z
				 M295.657,230.398h19.5v-21.5h-19.5V230.398z"/>
		</g>
		<g>
			<path class="st3" d="M315.483,236.898h-19.94c-0.766,0-1.515-0.172-2.167-0.497c-1.89-0.939-2.248-2.069-2.216-2.852
				c0.054-1.312,1.212-2.352,2.337-2.8l0,0c0.585-0.233,1.202-0.352,1.835-0.352h19.94c0.764,0,1.512,0.172,2.165,0.496
				c1.892,0.94,2.25,2.07,2.218,2.853c-0.054,1.312-1.212,2.352-2.337,2.8C316.732,236.78,316.115,236.898,315.483,236.898z
				 M294.052,232.143c-0.666,0.266-1.369,0.888-1.394,1.469c-0.026,0.646,0.857,1.185,1.387,1.447
				c0.446,0.223,0.964,0.34,1.498,0.34h19.94c0.441,0,0.872-0.082,1.28-0.245c0.666-0.265,1.369-0.887,1.394-1.468
				c0.026-0.646-0.858-1.185-1.388-1.447c-0.446-0.223-0.964-0.34-1.497-0.34h-19.94C294.89,231.898,294.459,231.98,294.052,232.143
				L294.052,232.143z"/>
		</g>
		<g>
			<rect x="294.907" y="215.398" class="st3" width="21" height="1.5"/>
		</g>
	</g>
	<g>
		<rect x="201.907" y="185.398" class="st3" width="167" height="1.5"/>
	</g>
	<g>
		<rect x="251.908" y="212.149" class="st5" width="28" height="40"/>
		<path class="st3" d="M280.657,252.898h-29.5v-41.5h29.5V252.898z M252.657,251.398h26.5v-38.5h-26.5V251.398z"/>
	</g>
	<g>
		<path class="st3" d="M278.596,212.898h-25.11c-0.911,0-1.805-0.163-2.583-0.471c-1.86-0.734-2.784-1.695-2.743-2.854
			c0.047-1.351,1.477-2.401,2.873-2.843h0.001c0.698-0.221,1.434-0.333,2.187-0.333h25.11c0.908,0,1.802,0.163,2.582,0.471
			c1.861,0.734,2.785,1.695,2.744,2.854c-0.047,1.351-1.477,2.401-2.873,2.843C280.084,212.786,279.349,212.898,278.596,212.898z
			 M251.484,208.161c-0.973,0.309-1.81,0.979-1.826,1.465c-0.012,0.333,0.454,0.877,1.796,1.407
			c0.604,0.239,1.307,0.365,2.031,0.365h25.11c0.6,0,1.183-0.089,1.735-0.263c0.973-0.309,1.81-0.979,1.826-1.465
			c0.012-0.333-0.454-0.877-1.796-1.407c-0.606-0.239-1.309-0.365-2.031-0.365h-25.11
			C252.62,207.898,252.037,207.987,251.484,208.161L251.484,208.161z"/>
	</g>
	<g>
		<rect x="265.157" y="212.148" class="st3" width="1.5" height="40"/>
	</g>
</g>
<g>
	<g>
		<g>
			<path class="st4" d="M351.908,242.086c-1.806-4.076-4-5-4.631-5.351c-0.387-0.216-0.319-0.853,0.016-1.144
				c31.615-27.505,48.615,6.495,45.171,16.436c-0.029,0.083-0.107,0.136-0.195,0.136l-74.556,0
				c5.194-32.076,31.536-14.629,30.194-15.076"/>
			<path class="st3" d="M392.27,252.912h-75.437l0.141-0.87c1.882-11.624,6.693-18.267,14.301-19.745
				c5.974-1.156,12.154,1.316,15.27,3.021c0.073-0.109,0.16-0.208,0.257-0.293c7.429-6.462,21.857-15.974,35.046-7.064
				c4.165,2.813,7.65,7.188,9.815,12.319c1.919,4.549,2.497,9.144,1.511,11.992C393.042,252.653,392.679,252.912,392.27,252.912z
				 M391.756,251.78c-0.001,0.001-0.001,0.003-0.002,0.004C391.755,251.783,391.755,251.781,391.756,251.78z M318.603,251.412
				h73.267c0.7-2.545,0.106-6.53-1.589-10.55c-2.054-4.866-5.347-9.007-9.273-11.66c-6.468-4.37-17.471-6.715-33.153,6.896
				c0.264,0.175,0.463,0.322,0.59,0.433c1.045,0.654,2.729,2.045,4.149,5.252c0.168,0.379-0.003,0.821-0.382,0.989
				c-0.378,0.168-0.821-0.003-0.989-0.382c-1.286-2.903-2.768-4.092-3.648-4.632c-0.036-0.019-0.071-0.039-0.104-0.062
				c-0.152-0.089-0.283-0.158-0.388-0.214l-0.171-0.092c-0.182-0.102-0.331-0.244-0.44-0.416
				c-2.658-1.543-10.236-5.003-16.796-2.694C324.004,236.275,320.281,242.037,318.603,251.412z"/>
		</g>
		<g>
			<path class="st4" d="M381.908,239.086c0,0-2.806-8.076-13-8"/>
			<path class="st3" d="M381.907,239.586c-0.206,0-0.399-0.129-0.472-0.335c-0.11-0.314-2.802-7.666-12.384-7.666
				c-0.048,0-0.116-0.009-0.145,0.001c-0.274,0-0.498-0.222-0.5-0.496c-0.002-0.276,0.22-0.502,0.496-0.504
				c0.049,0,0.098-0.001,0.146-0.001c10.315,0,13.302,8.253,13.331,8.337c0.09,0.261-0.048,0.545-0.308,0.636
				C382.018,239.576,381.962,239.586,381.907,239.586z"/>
		</g>
	</g>
</g>
<g>
	<g>
		<g>
			<path class="st4" d="M134.708,242.36c1.806-4.076,4-5,4.631-5.351c0.387-0.216,0.319-0.853-0.016-1.144
				c-31.615-27.505-48.615,6.495-45.171,16.436c0.029,0.083,0.107,0.136,0.195,0.136l74.556,0
				c-5.194-32.076-31.536-14.629-30.194-15.076"/>
			<path class="st6" d="M169.784,253.187H94.347c-0.408,0-0.771-0.257-0.903-0.64c-0.987-2.85-0.408-7.444,1.51-11.993
				c2.165-5.131,5.65-9.506,9.815-12.319c13.189-8.911,27.619,0.603,35.047,7.065c0.097,0.084,0.183,0.183,0.256,0.291
				c3.117-1.702,9.3-4.177,15.27-3.02c7.607,1.479,12.419,8.121,14.301,19.745L169.784,253.187z M94.746,251.687h73.268
				c-1.679-9.375-5.401-15.137-11.072-17.133c-6.561-2.31-14.138,1.152-16.796,2.693c-0.109,0.173-0.259,0.315-0.44,0.417
				l-0.17,0.092c-0.105,0.056-0.236,0.125-0.389,0.214c-0.032,0.023-0.066,0.044-0.103,0.062c-0.881,0.54-2.362,1.729-3.648,4.632
				c-0.168,0.379-0.612,0.55-0.989,0.382c-0.379-0.168-0.55-0.61-0.382-0.989c1.42-3.207,3.104-4.598,4.149-5.252
				c0.122-0.104,0.309-0.244,0.555-0.409c-15.676-13.63-26.656-11.285-33.118-6.918c-3.927,2.652-7.22,6.793-9.272,11.659
				C94.64,245.158,94.046,249.145,94.746,251.687z"/>
		</g>
		<g>
			<path class="st4" d="M104.708,239.36c0,0,2.806-8.076,13-8"/>
			<path class="st6" d="M104.708,239.86c-0.055,0-0.11-0.01-0.165-0.028c-0.261-0.091-0.398-0.375-0.308-0.636
				c0.029-0.084,3.017-8.337,13.331-8.337c0.049,0,0.096,0.001,0.146,0.001c0.276,0.002,0.498,0.228,0.496,0.504
				c-0.002,0.274-0.226,0.496-0.5,0.496c-0.038-0.009-0.097-0.001-0.145-0.001c-9.583,0-12.273,7.352-12.383,7.666
				C105.108,239.731,104.915,239.86,104.708,239.86z"/>
		</g>
	</g>
</g>
<g>
	<path class="st7" d="M400.75,253.187h-400c-0.414,0-0.75-0.336-0.75-0.75s0.336-0.75,0.75-0.75h400c0.414,0,0.75,0.336,0.75,0.75
		S401.164,253.187,400.75,253.187z"/>
</g>
<g>
	<rect x="16.663" y="251.437" class="st4" width="6" height="2"/>
</g>
</svg>
